<svg xmlns="http://www.w3.org/2000/svg" xmlns:xlink="http://www.w3.org/1999/xlink" width="886" height="749" viewBox="0 0 886 749">
  <defs>
    <filter id="Rectangle_41" x="69" y="0" width="749" height="749" filterUnits="userSpaceOnUse">
      <feOffset dy="3" input="SourceAlpha"/>
      <feGaussianBlur stdDeviation="3" result="blur"/>
      <feFlood flood-opacity="0.161"/>
      <feComposite operator="in" in2="blur"/>
      <feComposite in="SourceGraphic"/>
    </filter>
    <linearGradient id="linear-gradient" x1="0.5" y1="1" x2="0.5" gradientUnits="objectBoundingBox">
      <stop offset="0" stop-color="#faf4e0"/>
      <stop offset="0.54" stop-color="gray" stop-opacity="0.122"/>
      <stop offset="1" stop-color="gray" stop-opacity="0.102"/>
    </linearGradient>
    <filter id="Rectangle_43" x="595" y="105" width="291" height="543" filterUnits="userSpaceOnUse">
      <feOffset dy="3" input="SourceAlpha"/>
      <feGaussianBlur stdDeviation="3" result="blur-2"/>
      <feFlood flood-opacity="0.161"/>
      <feComposite operator="in" in2="blur-2"/>
      <feComposite in="SourceGraphic"/>
    </filter>
    <filter id="Rectangle_44" x="0" y="107" width="291" height="543" filterUnits="userSpaceOnUse">
      <feOffset dy="3" input="SourceAlpha"/>
      <feGaussianBlur stdDeviation="3" result="blur-3"/>
      <feFlood flood-opacity="0.161"/>
      <feComposite operator="in" in2="blur-3"/>
      <feComposite in="SourceGraphic"/>
    </filter>
    <filter id="Rectangle_45" x="604" y="113" width="273" height="524" filterUnits="userSpaceOnUse">
      <feOffset dy="3" input="SourceAlpha"/>
      <feGaussianBlur stdDeviation="3" result="blur-4"/>
      <feFlood flood-opacity="0.161"/>
      <feComposite operator="in" in2="blur-4"/>
      <feComposite in="SourceGraphic"/>
    </filter>
    <filter id="Path_90" x="9" y="113" width="273" height="524" filterUnits="userSpaceOnUse">
      <feOffset dy="3" input="SourceAlpha"/>
      <feGaussianBlur stdDeviation="3" result="blur-5"/>
      <feFlood flood-opacity="0.161"/>
      <feComposite operator="in" in2="blur-5"/>
      <feComposite in="SourceGraphic"/>
    </filter>
    <linearGradient id="linear-gradient-3" x1="0.5" y1="1" x2="0.5" gradientUnits="objectBoundingBox">
      <stop offset="0" stop-opacity="0.122"/>
      <stop offset="0.55" stop-opacity="0.09"/>
      <stop offset="1" stop-opacity="0.02"/>
    </linearGradient>
    <linearGradient id="linear-gradient-13" x1="0" y1="0.5" x2="1" y2="0.5" xlink:href="#linear-gradient-3"/>
    <linearGradient id="linear-gradient-19" y1="0.5" x2="1" y2="0.5" gradientUnits="objectBoundingBox">
      <stop offset="0" stop-color="gray" stop-opacity="0.251"/>
      <stop offset="0.54" stop-color="gray" stop-opacity="0.122"/>
      <stop offset="1" stop-color="gray" stop-opacity="0.102"/>
    </linearGradient>
    <filter id="Rectangle_83" x="137" y="649" width="612" height="48" filterUnits="userSpaceOnUse">
      <feOffset dy="3" input="SourceAlpha"/>
      <feGaussianBlur stdDeviation="3" result="blur-6"/>
      <feFlood flood-opacity="0.161"/>
      <feComposite operator="in" in2="blur-6"/>
      <feComposite in="SourceGraphic"/>
    </filter>
    <linearGradient id="linear-gradient-20" x1="0.5" y1="1" x2="0.5" y2="0" xlink:href="#linear-gradient-19"/>
    <filter id="Rectangle_85" x="137" y="53" width="612" height="48" filterUnits="userSpaceOnUse">
      <feOffset dy="3" input="SourceAlpha"/>
      <feGaussianBlur stdDeviation="3" result="blur-7"/>
      <feFlood flood-opacity="0.161"/>
      <feComposite operator="in" in2="blur-7"/>
      <feComposite in="SourceGraphic"/>
    </filter>
    <linearGradient id="linear-gradient-21" x1="0.5" y1="1" x2="0.5" y2="0" xlink:href="#linear-gradient-19"/>
  </defs>
  <g id="Group_34" data-name="Group 34" transform="translate(9 6)">
    <g transform="matrix(1, 0, 0, 1, -9, -6)" filter="url(#Rectangle_41)">
      <rect id="Rectangle_41-2" data-name="Rectangle 41" width="731" height="731" transform="translate(78 6)" fill="#ffd858" opacity="0.2"/>
    </g>
    <rect id="Rectangle_42" data-name="Rectangle 42" width="510" height="595.5" transform="translate(179 68.25)" fill="#ffd858" opacity="0.5"/>
    <g transform="matrix(1, 0, 0, 1, -9, -6)" filter="url(#Rectangle_43)">
      <rect id="Rectangle_43-2" data-name="Rectangle 43" width="273" height="525" transform="translate(604 111)" fill="url(#linear-gradient)"/>
    </g>
    <g transform="matrix(1, 0, 0, 1, -9, -6)" filter="url(#Rectangle_44)">
      <rect id="Rectangle_44-2" data-name="Rectangle 44" width="273" height="525" transform="translate(9 113)" fill="url(#linear-gradient)"/>
    </g>
    <g transform="matrix(1, 0, 0, 1, -9, -6)" filter="url(#Rectangle_45)">
      <rect id="Rectangle_45-2" data-name="Rectangle 45" width="255" height="506" transform="translate(613 119)" fill="#ffd858"/>
    </g>
    <g transform="matrix(1, 0, 0, 1, -9, -6)" filter="url(#Path_90)">
      <path id="Path_90-2" data-name="Path 90" d="M0,0H255V506H0Z" transform="translate(273 625) rotate(180)" fill="#ffd858"/>
    </g>
    <rect id="Rectangle_47" data-name="Rectangle 47" width="171" height="31" transform="translate(51 159)" fill="url(#linear-gradient-3)"/>
    <rect id="Rectangle_48" data-name="Rectangle 48" width="171" height="31" transform="translate(647 206)" fill="url(#linear-gradient-3)"/>
    <rect id="Rectangle_49" data-name="Rectangle 49" width="171" height="31" transform="translate(646 254)" fill="url(#linear-gradient-3)"/>
    <rect id="Rectangle_50" data-name="Rectangle 50" width="171" height="31" transform="translate(646 302)" fill="url(#linear-gradient-3)"/>
    <rect id="Rectangle_51" data-name="Rectangle 51" width="171" height="31" transform="translate(646 350)" fill="url(#linear-gradient-3)"/>
    <rect id="Rectangle_52" data-name="Rectangle 52" width="171" height="31" transform="translate(646 398)" fill="url(#linear-gradient-3)"/>
    <rect id="Rectangle_53" data-name="Rectangle 53" width="171" height="31" transform="translate(646 446)" fill="url(#linear-gradient-3)"/>
    <rect id="Rectangle_54" data-name="Rectangle 54" width="171" height="31" transform="translate(646 494)" fill="url(#linear-gradient-3)"/>
    <rect id="Rectangle_55" data-name="Rectangle 55" width="171" height="31" transform="translate(646 542)" fill="url(#linear-gradient-3)"/>
    <rect id="Rectangle_56" data-name="Rectangle 56" width="171" height="31" transform="translate(646 159)" fill="url(#linear-gradient-3)"/>
    <rect id="Rectangle_57" data-name="Rectangle 57" width="171" height="31" transform="translate(51 208)" fill="url(#linear-gradient-13)"/>
    <rect id="Rectangle_58" data-name="Rectangle 58" width="171" height="31" transform="translate(51 255)" fill="url(#linear-gradient-13)"/>
    <rect id="Rectangle_59" data-name="Rectangle 59" width="171" height="31" transform="translate(51 302)" fill="url(#linear-gradient-13)"/>
    <rect id="Rectangle_60" data-name="Rectangle 60" width="171" height="31" transform="translate(51 350)" fill="url(#linear-gradient-13)"/>
    <rect id="Rectangle_61" data-name="Rectangle 61" width="171" height="31" transform="translate(51 398)" fill="url(#linear-gradient-13)"/>
    <rect id="Rectangle_62" data-name="Rectangle 62" width="164" height="24" transform="translate(55 163)" fill="#fff"/>
    <rect id="Rectangle_63" data-name="Rectangle 63" width="164" height="24" transform="translate(54.5 210)" fill="#fff"/>
    <rect id="Rectangle_64" data-name="Rectangle 64" width="164" height="24" transform="translate(54.5 258)" fill="#fff"/>
    <rect id="Rectangle_65" data-name="Rectangle 65" width="164" height="24" transform="translate(54.5 306)" fill="#fff"/>
    <rect id="Rectangle_66" data-name="Rectangle 66" width="164" height="24" transform="translate(54.5 354)" fill="#fff"/>
    <rect id="Rectangle_67" data-name="Rectangle 67" width="164" height="24" transform="translate(54.5 402)" fill="#fff"/>
    <rect id="Rectangle_68" data-name="Rectangle 68" width="171" height="31" transform="translate(51 446)" fill="url(#linear-gradient-13)"/>
    <rect id="Rectangle_69" data-name="Rectangle 69" width="164" height="24" transform="translate(54.5 450)" fill="#fff"/>
    <rect id="Rectangle_70" data-name="Rectangle 70" width="164" height="24" transform="translate(54.5 450)" fill="#fff"/>
    <rect id="Rectangle_71" data-name="Rectangle 71" width="164" height="24" transform="translate(54.5 498)" fill="#fff"/>
    <rect id="Rectangle_72" data-name="Rectangle 72" width="164" height="24" transform="translate(54.5 546)" fill="#fff"/>
    <rect id="Rectangle_73" data-name="Rectangle 73" width="164" height="24" transform="translate(650 162)" fill="#fff"/>
    <rect id="Rectangle_74" data-name="Rectangle 74" width="164" height="24" transform="translate(650 210)" fill="#fff"/>
    <rect id="Rectangle_75" data-name="Rectangle 75" width="164" height="24" transform="translate(650 258)" fill="#fff"/>
    <rect id="Rectangle_76" data-name="Rectangle 76" width="164" height="24" transform="translate(650 306)" fill="#fff"/>
    <rect id="Rectangle_77" data-name="Rectangle 77" width="164" height="24" transform="translate(650 354)" fill="#fff"/>
    <rect id="Rectangle_78" data-name="Rectangle 78" width="164" height="24" transform="translate(650 402)" fill="#fff"/>
    <rect id="Rectangle_79" data-name="Rectangle 79" width="164" height="24" transform="translate(650 450)" fill="#fff"/>
    <rect id="Rectangle_80" data-name="Rectangle 80" width="164" height="24" transform="translate(650 498)" fill="#fff"/>
    <rect id="Rectangle_81" data-name="Rectangle 81" width="164" height="24" transform="translate(650 546)" fill="#fff"/>
    <rect id="Rectangle_82" data-name="Rectangle 82" width="603" height="38" transform="translate(132 645)" fill="url(#linear-gradient-19)"/>
    <g transform="matrix(1, 0, 0, 1, -9, -6)" filter="url(#Rectangle_83)">
      <rect id="Rectangle_83-2" data-name="Rectangle 83" width="594" height="30" transform="translate(146 655)" fill="#ffd858"/>
    </g>
    <rect id="Rectangle_84" data-name="Rectangle 84" width="602" height="39" transform="translate(134 50)" fill="url(#linear-gradient-20)"/>
    <g transform="matrix(1, 0, 0, 1, -9, -6)" filter="url(#Rectangle_85)">
      <rect id="Rectangle_85-2" data-name="Rectangle 85" width="594" height="30" transform="translate(146 59)" fill="#ffd858"/>
    </g>
    <rect id="Rectangle_86" data-name="Rectangle 86" width="292" height="506" transform="translate(289 113)" fill="#ffefbb" opacity="0.5"/>
    <path id="Path_74" data-name="Path 74" d="M825.66,417.55c7,9.38-3.48,20.46-3.48,20.46l1.76.61c-2.59,2.87-12.82,15.82-52.26,74.4-50.5,75-118.55,93.71-118.55,93.71h0a84,84,0,0,0-27.73-14.31v-7.08a83,83,0,0,0,55.3-53.48,85.081,85.081,0,0,0,9.14-38.44c0-48-39.77-86.94-88.82-86.94s-88.82,38.93-88.82,86.94a85.079,85.079,0,0,0,9.14,38.44,83,83,0,0,0,55.3,53.48v7.08a84,84,0,0,0-27.73,14.31h0S480.83,588,430.33,513c-39.44-58.58-49.67-71.54-52.26-74.4l1.76-.61s-10.45-11.08-3.48-20.46-46.15-20.46-40.06,0,13.93,30.69,13.93,30.69S461.42,623.6,519.47,652.58a80.431,80.431,0,0,0-2.06,18.12v34.1H684.59V670.7a80.429,80.429,0,0,0-2.06-18.12c58-29,169.25-204.35,169.25-204.35s7.84-10.23,13.93-30.69S818.69,408.17,825.66,417.55Z" transform="translate(-166 -84.5)" fill="url(#linear-gradient-21)"/>
    <circle id="Ellipse_5" data-name="Ellipse 5" cx="85.06" cy="85.06" r="85.06" transform="translate(349.94 328.41)" fill="#263238"/>
    <circle id="Ellipse_6" data-name="Ellipse 6" cx="80.06" cy="80.06" r="80.06" transform="translate(354.94 346.76)" fill="#f8c198"/>
    <circle id="Ellipse_7" data-name="Ellipse 7" cx="10.01" cy="10.01" r="10.01" transform="translate(393.3 399.29)" fill="#263238"/>
    <circle id="Ellipse_8" data-name="Ellipse 8" cx="10.01" cy="10.01" r="10.01" transform="translate(458.35 399.29)" fill="#263238"/>
    <path id="Path_75" data-name="Path 75" d="M624.35,548c0,6-10.45,15.85-23.35,15.85S577.65,554,577.65,548s10.45-5.84,23.35-5.84S624.35,542,624.35,548Z" transform="translate(-166 -84.5)" fill="#fff"/>
    <circle id="Ellipse_9" data-name="Ellipse 9" cx="3.34" cy="3.34" r="3.34" transform="translate(402.47 405.96)" fill="#fff"/>
    <circle id="Ellipse_10" data-name="Ellipse 10" cx="3.34" cy="3.34" r="3.34" transform="translate(468.35 405.96)" fill="#fff"/>
    <path id="Path_76" data-name="Path 76" d="M609,466.88c-4.88,0-9.26-4.24-9.78-9.09a12,12,0,0,1,7-11.75,3.419,3.419,0,0,1,1.47-.38c1.68,0,2.51,2,3.05,3.59,1.68,4.92,4.66,9.72,9.34,12s11.22,1.11,13.69-3.47c-6.62-2.95-9.45-12.21-5.6-18.35,1.49-2.37,3.81-4.38,4.28-7.14.86-5-4.62-8.64-9.47-10.14-14-4.33-62.8-4.81-65.49,16.08C554.67,460.27,593.63,469.8,609,466.88Z" transform="translate(-166 -84.5)" fill="#263238"/>
    <ellipse id="Ellipse_11" data-name="Ellipse 11" cx="5" cy="14.18" rx="5" ry="14.18" transform="matrix(0.93, -0.367, 0.367, 0.93, 348.411, 416.32)" fill="#f8c198"/>
    <ellipse id="Ellipse_12" data-name="Ellipse 12" cx="14.18" cy="5" rx="14.18" ry="5" transform="matrix(0.367, -0.93, 0.93, 0.367, 501.862, 438.975)" fill="#f8c198"/>
    <path id="Path_77" data-name="Path 77" d="M650.91,608.84s65.17-18.3,113.54-91.69,50.87-73.59,50.87-73.59l25.85,10.21S721.09,647.25,669.39,657.26,650.91,608.84,650.91,608.84Z" transform="translate(-166 -84.5)" fill="#f05542"/>
    <path id="Path_78" data-name="Path 78" d="M812.83,443.77s10-10.84,3.34-20,44.2-20,38.36,0-13.34,30-13.34,30Z" transform="translate(-166 -84.5)" fill="#f8c198"/>
    <path id="Path_79" data-name="Path 79" d="M551.09,608.84s-65.17-18.3-113.54-91.69-50.87-73.59-50.87-73.59l-25.85,10.21s120.09,193.48,171.8,203.49S551.09,608.84,551.09,608.84Z" transform="translate(-166 -84.5)" fill="#f05542"/>
    <path id="Path_80" data-name="Path 80" d="M389.17,443.77s-10-10.84-3.34-20-44.2-20-38.36,0,13.34,30,13.34,30Z" transform="translate(-166 -84.5)" fill="#f8c198"/>
    <g id="Group_33" data-name="Group 33" opacity="0.2">
      <path id="Path_81" data-name="Path 81" d="M628.29,427.27c-.48,2.76-2.8,4.76-4.28,7.14-3.37,5.38-1.62,13.16,3.32,17a12.79,12.79,0,0,1,.85-11.14c1.49-2.37,3.81-4.38,4.28-7.14.54-3.13-1.41-5.73-4.13-7.6a6,6,0,0,1-.04,1.74Z" transform="translate(-166 -84.5)" fill="#fff"/>
      <path id="Path_82" data-name="Path 82" d="M607.46,446.51c-.32-.75-.62-1.51-.88-2.27-.54-1.59-1.37-3.54-3.05-3.59a3.42,3.42,0,0,0-1.47.38,12,12,0,0,0-7,11.75,10.53,10.53,0,0,0,4.47,7.35,9.393,9.393,0,0,1-.3-1.51,12,12,0,0,1,7-11.75A3.869,3.869,0,0,1,607.46,446.51Z" transform="translate(-166 -84.5)" fill="#fff"/>
      <path id="Path_83" data-name="Path 83" d="M600.41,462.35c-12.16.51-31.78-4.13-41.45-14,7.22,15.36,37.05,21.79,50,19.32A10.08,10.08,0,0,1,600.41,462.35Z" transform="translate(-166 -84.5)" fill="#fff"/>
      <path id="Path_84" data-name="Path 84" d="M628.68,454.11c-2.92,3.43-8.58,4.15-12.75,2.12a14.539,14.539,0,0,1-3.7-2.61,17.839,17.839,0,0,0,7.87,8.44c4.68,2.27,11.22,1.11,13.69-3.47a11.88,11.88,0,0,1-5.11-4.48Z" transform="translate(-166 -84.5)" fill="#fff"/>
    </g>
    <path id="Path_85" data-name="Path 85" d="M837.85,453.77S717.76,647.25,666,657.26a60.334,60.334,0,0,1-9.07,1.11,53.047,53.047,0,0,0,12.41-1.11c51.71-10,171.8-203.49,171.8-203.49l-2.68-.95A11.171,11.171,0,0,1,837.85,453.77Z" transform="translate(-166 -84.5)" fill="#fff" opacity="0.2"/>
    <path id="Path_86" data-name="Path 86" d="M364.15,453.77S484.24,647.25,536,657.26a60.332,60.332,0,0,0,9.07,1.11,53.047,53.047,0,0,1-12.41-1.11c-51.71-10-171.8-203.49-171.8-203.49l2.68-.95A11.187,11.187,0,0,0,364.15,453.77Z" transform="translate(-166 -84.5)" fill="#fff" opacity="0.2"/>
    <path id="Path_87" data-name="Path 87" d="M435,506.88h0a80.06,80.06,0,0,1,80.06,80.06V620.3H354.94V586.94A80.06,80.06,0,0,1,435,506.88Z" fill="#f05542"/>
    <path id="Path_88" data-name="Path 88" d="M601.83,591.8h0a80.986,80.986,0,0,0-8.731.471c1.011,0,1.921-.061,2.891-.061h0a80.06,80.06,0,0,1,80.06,80.06v32.94h5.84V671.86a80.06,80.06,0,0,0-80.06-80.06Z" transform="translate(-166 -84.5)" fill="#fff" opacity="0.2"/>
    <path id="Path_89" data-name="Path 89" d="M600.17,591.8h0a80.987,80.987,0,0,1,8.731.471c-1.011,0-1.921-.061-2.891-.061h0a80.06,80.06,0,0,0-80.06,80.06v32.94h-5.84V671.86a80.06,80.06,0,0,1,80.06-80.06Z" transform="translate(-166 -84.5)" fill="#fff" opacity="0.2"/>
    <rect id="Rectangle_87" data-name="Rectangle 87" width="46.7" height="56.29" rx="23.35" transform="translate(411.65 484.78)" fill="#f8c198"/>
  </g>
</svg>
