<svg xmlns="http://www.w3.org/2000/svg" width="1461.003" height="1390.255" viewBox="0 0 1461.003 1390.255">
  <g id="Rocket_Launch" data-name="Rocket Launch" transform="translate(174.318 -459.328) rotate(20)">
    <path id="Path_95" data-name="Path 95" d="M541.906,678.325c-.434,0-.838-.155-1.272-.186a9.257,9.257,0,0,1,1.272.186ZM493.17,697.14a24.608,24.608,0,0,0-4.142,11.68c0,.45-.093.931-.124,1.427a24.7,24.7,0,0,1,.4-3.847,24.444,24.444,0,0,1,3.443-9.307,20.942,20.942,0,0,0-1.272,2.016,19.088,19.088,0,0,1,7.027-7.445,14.612,14.612,0,0,1,5.336-1.923,38.009,38.009,0,0,1,4.793.093,32.623,32.623,0,0,0-5.351.217,16.192,16.192,0,0,1,10,1.551c-7.306-3.645-15.511-.884-20.165,5.569ZM470.43,727.667a8.783,8.783,0,0,1,1.753-1.706C471.531,726.643,470.632,727.713,470.43,727.667Zm1108.8,610.213V755.912c0-7.756-.62-16.581-9.524-19.389a17.231,17.231,0,0,0-16.411,4.048c2.761-5.4.714-11.664-3.707-15.511-5.01-4.266-11.8-5.072-18.086-3.831a8.961,8.961,0,0,0,2.094-4.653,38.719,38.719,0,0,1,.5-4.824c0-1.784-.434-3.568-.419-5.32,0,1.179.465,2.652.574,3.862-.233-7.4-3.381-15.108-9.958-19.048a15.658,15.658,0,0,0-19.017,2.125,1.663,1.663,0,0,1-.263-.977c.093.264.186.527.263.791a16.357,16.357,0,0,0,1.21-1.551,13.528,13.528,0,0,0-1.117,1.334c.357-.419-1.3-3.412-1.551-3.986a27.744,27.744,0,0,0-2.87-4.266,21.086,21.086,0,0,0-8.624-6.328l.326.543a24.247,24.247,0,0,0-10.951-1.551,21.4,21.4,0,0,1,4.87.109,22.257,22.257,0,0,0,3.273.791c-1.551.124-3.335-.512-4.948-.527a22.838,22.838,0,0,0-3.847.279,19.445,19.445,0,0,0-7.228,2.42,5.23,5.23,0,0,1,1.039-.791,12.531,12.531,0,0,0-2.792,1.877,13.755,13.755,0,0,0,3.785-5.382,21.9,21.9,0,0,0,1.132-3.692c.248-1.039,1.117-3.723.776-4.653.775,2.265-1.117,5.677-1.551,7.988,3.94-7.616,2.544-17.884-1.334-25.175a34.55,34.55,0,0,0-8.919-10.718,33.691,33.691,0,0,0-5.693-3.707,31.825,31.825,0,0,0-3.412-1.551c-.341-.124-3.816-1.21-2.265-.838-8.857-2.575-17.528-.993-23.267,6.515-1.551-1.38-1.831-2.218-4-3.1a18.78,18.78,0,0,0-7.957-1.194q.233-.012.465,0a24.962,24.962,0,0,0-2.994.6,21.882,21.882,0,0,0-4.932,1.706,23.58,23.58,0,0,0-8.361,6.98,37.6,37.6,0,0,0-3.692,7.042,8.118,8.118,0,0,0-.838,6.034c-1.334-3.273-5.429-4.266-8.624-4.266-.853,0-4.529,1.086-4.948.822-1.008-.667,1.039-.791.558-1.722s-1.3.636-1.783,1.427a8.555,8.555,0,0,0-1.039-3.475,21.605,21.605,0,0,0-7.849-6.965c-.714-.372-8.857-2.932-8.857-2.839,3.459-.45,7.042,1.474,10.16,2.637-13.278-6.98-29.6-1.939-37.568,10.486-.636,1.008-1.427,3.18-2.28,3.769a5.844,5.844,0,0,1-2.885.419,25.891,25.891,0,0,0-4.731.791,27.533,27.533,0,0,0-8.795,4.017c-1.194.822-2.265,1.768-3.381,2.7-.124.108-1.07,1.008-.838.5-4.653,6.375-7.616,13.665-6.36,21.716a23.35,23.35,0,0,0,12.052,17.249s-.264-.171-.217-.14c.745.4-.993.869,0,1.551-.636-.884,1.1.682,1.334.45-.233.264-.31.326-.248.171-1.21,3.009-2.528,5.46-2.745,8.841a20.959,20.959,0,0,0,3.971,13.309c-.357.419-2.792.186-3.413.357.4,0,3.351,0,3.444-.326,1.1,1.551.962,1.148-.295.869a15.768,15.768,0,0,0-2.079-.217s-2.358,0-1.071-.326c-10.02,1.086-17.96,8.268-21.714,17.342.108-.248,1.551-2.482,1.473-2.559.31.5-1.349,4.033-1.551,4.762s-.962,2.7-.62,3.506c0,0,.714-1.861.775-2.11a46.126,46.126,0,0,1,1.427-4.653,29.109,29.109,0,0,1,5.088-8.376,22.156,22.156,0,0,1,7.118-5.258,48.716,48.716,0,0,1,4.824-1.427c-.031.124-1.132.527-1.07.729s2.466-.326,2.42-.31c-16.472,3.1-24.165,23.531-17.061,37.894a17.525,17.525,0,0,0,6.885,7.709c1.055.605,2.311.838,3.32,1.427s.915.574,1.551,1.83a18.816,18.816,0,0,0,3.66,4.855,20.7,20.7,0,0,0,9.431,5.429c.682.186,7.182,1.411,7.756.388.14-.372.294-.7.481-.729-.667.171,6.2,8.1,6.654,8.748.264.372.342.807.636,1.194.822,1.055,1.117.729,1.008,2.094s-.605,2.513-.745,3.769a15.234,15.234,0,0,1-.2,3.754c-.388.775-1.908,1.66-2.544,2.358a24.476,24.476,0,0,0-2.141,2.668c-.915,1.35-.729,1.8-2.311,1.1a19.183,19.183,0,0,0-3.459-1.132,18.027,18.027,0,0,0-7-.2c-1.194.2-4.406.667-5.088,1.846,0,.155.171.171.372,0a23.15,23.15,0,0,0-5.863,3.505c-.388.341-1.551,1.83-2.079,1.846.078,0,2.218-2.978,2.59-3.319a19.615,19.615,0,0,1,5.631-3.568,19.839,19.839,0,0,1,12.967-.915,23.277,23.277,0,0,0-9.741-.776c-.574.093-6.344,1.349-6.344,1.365-.093-.745,2.435-1.66,3.583-2.047a23.244,23.244,0,0,0-8.671,4.653,22.685,22.685,0,0,0-3.536,3.955c-.931,1.334-1.549,3.257-3.1,3.6a19.364,19.364,0,0,1,1.551-3.35c-.5.7-.946,1.411-1.381,2.156a3.012,3.012,0,0,1-.7.946,2.974,2.974,0,0,1-1.006.6c-1.412.745-3.1,1.055-4.5,1.83-.651.341-1.923.838-2.28,1.551-.124.264.481.884.279,1.086-.527.543-.651-.527-1.179-.931-2.078-1.551-6.282-1.846-8.749-2.032-12.983-.946-25.159,7.089-30.479,18.753a30.434,30.434,0,0,1,4.374-5.848,38.419,38.419,0,0,0-5.817,14.7,18.872,18.872,0,0,1-.605,4.11c-.465.915-1.861,1.427-2.792,2.094a20.616,20.616,0,0,0-5.755,6.2,23.063,23.063,0,0,0-2.916,8.035,22.662,22.662,0,0,0-.295,3.831,7.289,7.289,0,0,1,.093,1.908c-.17.5-1.194,1.334-1.551,1.815a21.743,21.743,0,0,0-3.506,6.313c-.372,1.055-.4,3.226-1.644,3.661a10.555,10.555,0,0,0,1.148,1.194c-5.941,2.156-11.525,4.157-16.52,8.221,3.816-3.723,9.88-8.019,15.356-8.733-1.551-1.3-3.723,0-5.351.667a35.138,35.138,0,0,0-8.9,4.979,37.882,37.882,0,0,0-11.509,14.906c-4.87,10.982-2.683,23.934,3.738,33.861.466,0,2.513,1.551,3.459,1.551a3.841,3.841,0,0,0-1.737,2.172c3.381-1.551,2.172,1.691,1.442,3.412a25.21,25.21,0,0,0-2.125,9.028c-.124-.589-.465.714-.527.931a22.244,22.244,0,0,0-1.737-6.918c-.481-1.132-1.256-2.109-1.768-3.211a7.126,7.126,0,0,1-.543-3.3,27.626,27.626,0,0,0-2.761-11.215c-.264-.465-2.063-4-2.838-3.754a38.83,38.83,0,0,0,1.551,4.141c.264.838,1.287,3.474,0,2.544-.946-.651-1.753-2.777-2.435-3.723a24.822,24.822,0,0,0-5.289-5.3,23.914,23.914,0,0,0-14.5-4.855,21.728,21.728,0,0,0-8.283,1.737c-1.923.822-4.188,3.2-6.2,2.839a23.406,23.406,0,0,1,12.673-5.8,22.583,22.583,0,0,0-8.407,2.575,22.139,22.139,0,0,0-3.1,2.032,3.709,3.709,0,0,1-1.8,1.1,14.693,14.693,0,0,1-2.342-.264c9.214-9.9,24.818-9.9,35.164-1.722a25.832,25.832,0,0,0-28-5.01,24.869,24.869,0,0,0-6.375,4.017c-.791.682-1.691,2.141-2.575,2.59a13.65,13.65,0,0,1-3.1.341,24.82,24.82,0,0,0-12.952,6.313,26.334,26.334,0,0,0-4.033,4.777,25.829,25.829,0,0,0-1.954,3.6,22.932,22.932,0,0,1-1.349,3.707c-1.07,1.551-3.568,2.59-4.964,3.971-.791.776-1.443,1.97-2.3,2.652s-1.551.589-2.885.667c-2.3.14-4.343,1.117-6.546,1.4-1.815.248-4.653-2.078-6.561-2.854a30.421,30.421,0,0,0-15.744-1.691h3.645c-.015,0-6.437,2.435-6.484,2.4.76.279,2.776-.543,3.443-.667a29.981,29.981,0,0,0-13.448,7.228,31.34,31.34,0,0,0-4.995,6.22,19.632,19.632,0,0,1-1.892,3.366,25.48,25.48,0,0,1-3.692,2.016c-2.094,1.241-5.46.558-8,1.086a20.164,20.164,0,0,1-4.095,1.024,33.636,33.636,0,0,1-3.769-1.427c-1.427-.357-2.559-.264-3.614-1.241s-1.83-2.172-2.807-3.1a38.524,38.524,0,0,0-6.7-5.444,37.382,37.382,0,0,1,7.631,7.6c-8.733-9.059-21.111-14.224-33.737-11.928a28.209,28.209,0,0,1,2.761-.76,48.786,48.786,0,0,0-11.153,3.552,10.255,10.255,0,0,0-5.041,3.738c-2.2-3.226-7.414-4.793-10.935-5.739a33.359,33.359,0,0,0-17.543,0c0,.434,4.87-.31,5.258-.341a38.021,38.021,0,0,1,10.858.667c4.188.884,10.424,2.3,12.3,6.654,1.148-.853.279.993,0,1.381-2.591-3.707-8.392-5.32-12.549-6.2a32.455,32.455,0,0,0-18.412,1.551,33.568,33.568,0,0,0-7.926,4.483,37.971,37.971,0,0,0-3.661,3.2c-1.256,1.272-1.551,1.768-3.366,1.722a21.8,21.8,0,0,0-4.483.279c-1.411.248-3.49,1.551-4.824,1.551s-3.1-1.21-4.328-1.551a23.364,23.364,0,0,0-5.274-.714,24.853,24.853,0,0,1,9.043,2.528c-1.722.838-3.723-.45-5.6-.838a25.977,25.977,0,0,0-3.63-.434,4.824,4.824,0,0,1-3.1-1.179,16.51,16.51,0,0,0-2.42-1.272,6.31,6.31,0,0,1-2.947-1.644,14.708,14.708,0,0,0-1.892-1.985c-1.8-1.318-3.428-3.1-5.2-4.653a49.921,49.921,0,0,0-4.653-3.614c-1.148-.791-3.723-1.551-4.436-2.652a.612.612,0,0,1,.326,0,22.711,22.711,0,0,0-22.243,3.676c-.729.574-1.443,1.194-2.125,1.83-1.458,1.38-1.256,1.38-3.1.729a19.4,19.4,0,0,0-3.707-.884,19.629,19.629,0,0,1-3.335,0c-1.21-.4-2.42-3.676-3.4-4.964a32.389,32.389,0,0,1-2.652-3.1c.667-.884,5.894,5.553,6.313,6.2a19.88,19.88,0,0,0-9.028-8.748c-.667-.295-1.551-.388-2.125-.729-.931-.512-.481,0-.993-1.055a49.978,49.978,0,0,0-2.327-5.693,18.624,18.624,0,0,0-9.121-7.538,19.224,19.224,0,0,0-5.894-1.287c-.745,0-2.389.4-2.978.078s-1.551-2.063-2.063-2.668c-9.989-11.385-28.68-7.9-35.552,4.948a21.936,21.936,0,0,0-2.482,13.867c.233,1.427.729,2.4.233,3.676-.388,1.008-1.225,1.939-1.675,2.963a15.29,15.29,0,0,0-1.272,6.856c-.667-.31-1.768-.915-2.513-.589a3.347,3.347,0,0,0,1.83-3.35,31.736,31.736,0,0,0-2.389,3.164c1.334-2.4.683-5.724,0-8.236a25.248,25.248,0,0,0-1.4-4.064c-.186-.4-1.8-2.559-1.8-2.87,0,.5,2.668,6.856,2.265,6.84-.155,0-2.156-4.653-2.311-4.964-.419-.791-.853-1.551-1.334-2.311-.14-.2-1.861-2.3-1.179-2.234-.217-.109-2.125-1.1-2.358-.869a10.012,10.012,0,0,0,5.631-3.955,30.147,30.147,0,0,0,3.614-12.548c-.543,1.3-3.273,13.433-4.824,12.626-.31-.171,2.141-7.756,2.28-8.36a35.975,35.975,0,0,0,.465-12.688c.248.574,0-1.551,0-1.768a26.114,26.114,0,0,0-1.551-5.507,34.975,34.975,0,0,0-2.156-5.088c-.295-.527-2.451-3.1-2.234-3.754.078-.2,1.83,1.955,1.923,2.078a30,30,0,0,1,3.226,6.2c1.737,4.467,1.985,8.919,2.466,13.6a33.063,33.063,0,0,0-5.383-20.351,28.344,28.344,0,0,1,2.063,3.971A31.032,31.032,0,0,0,789.4,899.407a24.429,24.429,0,0,1,5.134,2.652c.341.233,2.683,2.109,2.389,2.249-.652.279-3.366-1.551-3.909-1.768a63.824,63.824,0,0,0-5.894-2.5,17.418,17.418,0,0,0-9.462-.807,15.69,15.69,0,0,1,2.683-2.342,20.612,20.612,0,0,0-.667-4.746,16.258,16.258,0,0,0-3.862-6.871c-1.179-1.241-1.954-1.3-1.691-3.1a17.228,17.228,0,0,0,.14-4.095,18.153,18.153,0,0,0-2.513-7.756,16.228,16.228,0,0,0-5.646-5.538,12.85,12.85,0,0,1-1.908-.946c-.791-.667-.558-.155-.76-1.256-.233-1.442-.124-3.009-.31-4.467a34.621,34.621,0,0,0-5.662-15.077c.931,1.551,2.528,4.359,1.861,4.933.124-.109-6.2-7.306-6.577-7.756a25.593,25.593,0,0,0-11.277-6.872,20.935,20.935,0,0,0-12.89.4c-2.807.993-4.653,4.529-5.786,7.228A7.125,7.125,0,0,1,726.118,838c-.434,1.163-1.846,2.079-2.559,3.1a13.23,13.23,0,0,0-1.551,3.1,11.237,11.237,0,0,0-2.73-7.12c-.838-.869-2.218-1.226-2.994-2.032s-1.024-3.1-1.473-4.421a17.372,17.372,0,0,1,3.955.962c.714.264,2.3,1.427,2.963,1.365,2.11-.155-.512-1.722-1.21-2.125a16.189,16.189,0,0,0-3.6-1.551c-.621-.186-1.288-.248-1.908-.45-1.443-.465-.791-.217-1.551-1.287-1.1-1.551-1.861-3.257-3.1-4.746a19.763,19.763,0,0,0-28.975-1.908,19.641,19.641,0,0,0-3.909-5.1,15.4,15.4,0,0,0-2.42-1.8c-.341-.2-.714-.4-1.086-.589-.869-.109-1.024-.558-.5-1.334-.233-2.4.5-4.653-.109-7.1a16.419,16.419,0,0,0-2.637-5.8c.248-.109.5-.248.745-.372a7.6,7.6,0,0,0,1.024-.481l.279-.155a23.774,23.774,0,0,0,8.64-7.182c1.334-1.877,3.288-5.476,1.939-7.849.295.512,1.551,3.366,2.311,3.1-.279.124-1.288-1.551-2.032-2.73a10.175,10.175,0,0,0,8.376,3.738,15.076,15.076,0,0,0,12.192-7.756c.2-.372.388-.76.558-1.148,0-.822.481-1.086,1.287-.791,2-.651,3.878-.6,5.786-1.675a15.5,15.5,0,0,0,7.135-9.695,28.838,28.838,0,0,0-4.886-24.4c-4.157-5.491-14.581-10.206-20.552-4.653a5.762,5.762,0,0,0-.434-4.467c-.233-.45-1.256-1.365-1.287-1.846s.931-1.225,1.318-1.675a20.731,20.731,0,0,0,2.854-4.514c0-.124,1.551-4.064.962-4.064,0,0-2.668,5.46-3.009,5.956a10.147,10.147,0,0,1-2.342,2.777c-.744.465-.31.543-1.086.31-.419-.14-.946-.884-1.349-1.148a13.681,13.681,0,0,0,4.995-14.363c-.264-.838-1.753-2.73-1.691-3.382.109-.931,1.039-.5,2.094-1.086a6.036,6.036,0,0,0,2.575-7.306,4.621,4.621,0,0,1,.636.807,16.011,16.011,0,0,0-1.241-1.83c10.1-3.754,13.123-16.706,8.9-25.78a21.147,21.147,0,0,0-10.051-10.176,22.045,22.045,0,0,0-7.2-2.047c-.791-.093-6.2-.558-4.374-1.551-1.551.388-.931.419-1.551-.652a22.962,22.962,0,0,1-1.07-2.327,32.614,32.614,0,0,0-3.676-5.491,27.262,27.262,0,0,0-10.346-7.849,24.493,24.493,0,0,0-12.983-1.753,19.483,19.483,0,0,0-6.608,2.094c-.171.093-3.506,2.2-3.3,2.389s5.817-2.839,6.36-2.994c.993-.295,5.3-1.66,6.2-.745a34.866,34.866,0,0,0-3.521.714,19.817,19.817,0,0,0-5.212,1.644c-.217.109-.419.264-.62.388,6.9-3.474,16.566-2.5,22.693,1.4a17.909,17.909,0,0,0-10.424-2.327,22.876,22.876,0,0,1,13.464,5.941c-.853,0-2.218-1.35-2.9-1.768a25.786,25.786,0,0,0-6.2-2.823,19.565,19.565,0,0,0-14.27.869,22.533,22.533,0,0,1,5.894-3.1,19.289,19.289,0,0,0-12.874,6.732c-1.551,1.892-3.816,6.018-2.5,8.5a9.565,9.565,0,0,0-6.856-4.746,12.319,12.319,0,0,0-5.32.2c-.543.155-2.683.682-2.947,1.194A3.479,3.479,0,0,1,627,655.663a8.958,8.958,0,0,0-2.017,1.21c-.372.31-2.016,2.342-1.256,1.008A4.957,4.957,0,0,0,622.7,660.8a23.88,23.88,0,0,0-4.095-13.169c.822-.714,4.033,8.779,4.141,9.974a22.637,22.637,0,0,0-11.525-17.171,20.267,20.267,0,0,0-11.959-2.265,16.631,16.631,0,0,0-8.454,3.661c.388-.279-4.111-5.445-5.088-5.91a26.6,26.6,0,0,1-2.637-1.334c0,.248,1.272.729,1.163.993-9.493-5.708-21.2-.109-28.618,6.391a30.869,30.869,0,0,1,5.227-3.443c-5.01,2.885-8.469,7.461-11.354,12.409,0-.109.5-1.179.279-1.443-.946-1.07-3.878,7.554-3.924,7.756a30.894,30.894,0,0,0-.838,12.037.422.422,0,0,1,0,.14.628.628,0,0,1,0,.171h0a30.818,30.818,0,0,0,1.892,5.91,11.182,11.182,0,0,1-.543-2.559c.946,3.459,2.544,7.756,5.32,10.16-.233-.171-.434-.419-.667-.6a5.021,5.021,0,0,1,.589.543,22.593,22.593,0,0,0-2.994-1.768c-.729-.341-2.435-.651-2.9-1.3,0,0,1.722.419,1.861.481a14.894,14.894,0,0,1,3.444,2.048,15.651,15.651,0,0,0-9.012-4.11c-1.551-.884-7.88-.357-9.136.651,0,0,1.443-.2,1.086-.14a21.725,21.725,0,0,0-10.315,5.134,23.642,23.642,0,0,0-2.885,3.1c-.5.636-2.7,3.1-2.637,3.878a2.325,2.325,0,0,1,0-.465,17.836,17.836,0,0,0-1.132,3.319c3.3-6.375,8.035-12.409,15.341-14.208a21.128,21.128,0,0,0-14.689,15.806,9.415,9.415,0,0,0-3.18-3.971,16.457,16.457,0,0,0-6.1-2.172,16.739,16.739,0,0,0-11.447,2.5c-6.763,4.064-9.2,13.06-9.229,20.444a30.436,30.436,0,0,1,1.644-9.726,31.338,31.338,0,0,0-.946,12.874,49.111,49.111,0,0,1,.155-8.423,22.931,22.931,0,0,1,1.117-4.793,19.769,19.769,0,0,1,1.706-3.676,15.97,15.97,0,0,0,1.194-1.675c.186.4-1.349,2.482-1.551,2.963a27.148,27.148,0,0,0-1.986,6.468,32.939,32.939,0,0,0-.45,7,14.062,14.062,0,0,0,.233,3.226,21.148,21.148,0,0,1,0-4.56v-.078c-.109,3.1.2,6.515,1.8,8.547a6.8,6.8,0,0,0,1.629,1.644,23.819,23.819,0,0,0-14.193.279,17.362,17.362,0,0,0-4.917,2.854,3.913,3.913,0,0,0,.884-1.117c-.372.791-2.4,1.908-3.1,2.668a13.091,13.091,0,0,0-2.513,4.219,13.7,13.7,0,0,0-.5,5.786,11.864,11.864,0,0,0,1.148,4,16.431,16.431,0,0,0-9.4-4.529,15.317,15.317,0,0,0-2.916-.233,13.558,13.558,0,0,0-1.551.109l-1.365.2c-.838.186-2.342.558-.341.078a12.407,12.407,0,0,0-4.762,2.4c.372-.295.915-.651,1.334-.915l.6-.31c-9.105,5.026-7.321,17.466-7.321,26.369V948.624q0,43.774-.078,87.5v88.771q0,41.415-.078,82.815v137.042a54.478,54.478,0,0,0,0,8.267,7.513,7.513,0,0,1,0,1.024H1577.669c1.722,0,1.784.388,1.861-1.272.2-4.9,0-9.85,0-14.751Z" transform="translate(-129.226 17.732)" fill="#fff"/>
    <path id="Path_96" data-name="Path 96" d="M711.38,171.171a6.034,6.034,0,1,0-7.258,4.487A6.031,6.031,0,0,0,711.38,171.171Z" transform="translate(133.666 21.819)" fill="#fff"/>
    <path id="Path_97" data-name="Path 97" d="M639.415,326.186a8.484,8.484,0,1,0-10.206,6.31A8.484,8.484,0,0,0,639.415,326.186Z" transform="translate(106.785 54.02)" fill="#fff"/>
    <path id="Path_98" data-name="Path 98" d="M971.116,459.266a8.485,8.485,0,1,0-10.208,6.31A8.484,8.484,0,0,0,971.116,459.266Z" transform="translate(221.717 91.543)" fill="#fff"/>
    <path id="Path_99" data-name="Path 99" d="M665.722,665.359a8.485,8.485,0,1,0-11.443-3.609A8.485,8.485,0,0,0,665.722,665.359Z" transform="translate(117.404 148.079)" fill="#fff"/>
    <path id="Path_100" data-name="Path 100" d="M1023.157,369.55a8.479,8.479,0,1,0-10.206,6.308A8.471,8.471,0,0,0,1023.157,369.55Z" transform="translate(239.753 66.246)" fill="#fff"/>
    <path id="Path_101" data-name="Path 101" d="M997.665,549.013a8.484,8.484,0,1,0-10.207,6.309A8.485,8.485,0,0,0,997.665,549.013Z" transform="translate(230.917 116.847)" fill="#fff"/>
    <path id="Path_102" data-name="Path 102" d="M384.61,431.662a4.545,4.545,0,1,0-5.466,3.38A4.544,4.544,0,0,0,384.61,431.662Z" transform="translate(42.54 85.547)" fill="#fff"/>
    <path id="Path_103" data-name="Path 103" d="M545.669,255.232a4.545,4.545,0,1,0-5.468,3.38A4.543,4.543,0,0,0,545.669,255.232Z" transform="translate(77.265 69.157)" fill="#fff"/>
    <path id="Path_104" data-name="Path 104" d="M633.919,537.443a4.545,4.545,0,1,0-6.13-1.934A4.546,4.546,0,0,0,633.919,537.443Z" transform="translate(108.74 114.673)" fill="#fff"/>
    <path id="Path_105" data-name="Path 105" d="M858.227,184.619A4.545,4.545,0,1,0,852.76,188,4.544,4.544,0,0,0,858.227,184.619Z" transform="translate(185.882 30.24)" fill="#fff"/>
    <path id="Path_106" data-name="Path 106" d="M415.684,607.25a4.545,4.545,0,1,0-5.466,3.38A4.544,4.544,0,0,0,415.684,607.25Z" transform="translate(59.666 135.3)" fill="#fff"/>
    <path id="Path_107" data-name="Path 107" d="M1132.747,281.172a4.542,4.542,0,1,0-5.46,3.378A4.543,4.543,0,0,0,1132.747,281.172Z" transform="translate(245.957 83.452)" fill="#fff"/>
    <path id="Path_108" data-name="Path 108" d="M938.388,129.75a4.545,4.545,0,1,0-5.468,3.38A4.547,4.547,0,0,0,938.388,129.75Z" transform="translate(213.738)" fill="#fff"/>
    <path id="Path_109" data-name="Path 109" d="M1212.765,587.369a4.542,4.542,0,1,0-5.46,3.38A4.531,4.531,0,0,0,1212.765,587.369Z" transform="translate(290.06 129.667)" fill="#fff"/>
    <path id="Path_110" data-name="Path 110" d="M1220.09,482.844a4.55,4.55,0,1,0-5.476,3.378A4.555,4.555,0,0,0,1220.09,482.844Z" transform="translate(294.089 100.049)" fill="#fff"/>
    <path id="Path_111" data-name="Path 111" d="M1278.64,645.289a4.55,4.55,0,1,0-5.475,3.38A4.555,4.555,0,0,0,1278.64,645.289Z" transform="translate(326.358 146.078)" fill="#fff"/>
    <path id="Path_112" data-name="Path 112" d="M691.859,256.763a8.81,8.81,0,1,0-10.6,6.552A8.808,8.808,0,0,0,691.859,256.763Z" transform="translate(124.699 67.109)" fill="#fff"/>
    <path id="Path_113" data-name="Path 113" d="M890.466,382.992a4.545,4.545,0,1,0-5.468,3.38A4.546,4.546,0,0,0,890.466,382.992Z" transform="translate(197.085 71.756)" fill="#fff"/>
    <path id="Path_114" data-name="Path 114" d="M1044.295,606.8a4.542,4.542,0,1,0-5.46,3.378A4.543,4.543,0,0,0,1044.295,606.8Z" transform="translate(250.545 135.172)" fill="#fff"/>
    <path id="Path_115" data-name="Path 115" d="M971.567,709.754a4.544,4.544,0,1,0-5.466,3.378A4.544,4.544,0,0,0,971.567,709.754Z" transform="translate(225.269 164.344)" fill="#fff"/>
    <path id="Path_116" data-name="Path 116" d="M590.681,370.676a4.545,4.545,0,1,0-5.468,3.378A4.546,4.546,0,0,0,590.681,370.676Z" transform="translate(92.907 68.266)" fill="#fff"/>
    <path id="Path_117" data-name="Path 117" d="M348.888,550.137a4.545,4.545,0,1,0-5.468,3.378A4.547,4.547,0,0,0,348.888,550.137Z" transform="translate(22.853 119.117)" fill="#fff"/>
    <path id="Path_118" data-name="Path 118" d="M1240,409.629a4.542,4.542,0,1,0-5.46,3.378A4.543,4.543,0,0,0,1240,409.629Z" transform="translate(305.066 79.304)" fill="#fff"/>
    <path id="Path_119" data-name="Path 119" d="M1045.295,450.461a4.542,4.542,0,1,0-5.46,3.38A4.533,4.533,0,0,0,1045.295,450.461Z" transform="translate(250.892 90.874)" fill="#fff"/>
    <path id="Path_120" data-name="Path 120" d="M1251.217,717.752a4.542,4.542,0,1,0-5.476,3.38A4.543,4.543,0,0,0,1251.217,717.752Z" transform="translate(311.249 166.611)" fill="#fff"/>
    <path id="Path_121" data-name="Path 121" d="M443.079,481.846a4.545,4.545,0,1,0-5.468,3.378A4.545,4.545,0,0,0,443.079,481.846Z" transform="translate(74.764 99.767)" fill="#fff"/>
    <path id="Path_122" data-name="Path 122" d="M735.255,381.017A6.034,6.034,0,1,0,728,385.5,6.032,6.032,0,0,0,735.255,381.017Z" transform="translate(141.954 70.547)" fill="#fff"/>
    <path id="Path_123" data-name="Path 123" d="M1081.541,535.455a6.033,6.033,0,1,0-7.259,4.486A6.038,6.038,0,0,0,1081.541,535.455Z" transform="translate(262.16 114.226)" fill="#fff"/>
    <path id="Path_124" data-name="Path 124" d="M1000.935,228.5a6.034,6.034,0,1,0-7.259,4.486A6.036,6.036,0,0,0,1000.935,228.5Z" transform="translate(234.179 53.412)" fill="#fff"/>
    <path id="Path_125" data-name="Path 125" d="M679.157,472.23a6.034,6.034,0,1,0-7.258,4.486A6.034,6.034,0,0,0,679.157,472.23Z" transform="translate(122.481 96.344)" fill="#fff"/>
    <path id="Path_126" data-name="Path 126" d="M310.361,739.1a6.034,6.034,0,1,0-7.259,4.486A6.036,6.036,0,0,0,310.361,739.1Z" transform="translate(0 171.822)" fill="#fff"/>
    <path id="Path_127" data-name="Path 127" d="M1149.479,430.595a6.032,6.032,0,1,0-7.259,4.487A6.036,6.036,0,0,0,1149.479,430.595Z" transform="translate(253.562 84.569)" fill="#fff"/>
    <path id="Path_128" data-name="Path 128" d="M1175.889,321.513a6.032,6.032,0,1,0-7.244,4.487A6.024,6.024,0,0,0,1175.889,321.513Z" transform="translate(268.117 53.717)" fill="#fff"/>
    <path id="Path_129" data-name="Path 129" d="M818.755,802.4a6.034,6.034,0,1,0-7.258,4.486A6.034,6.034,0,0,0,818.755,802.4Z" transform="translate(170.939 189.724)" fill="#fff"/>
    <path id="Path_130" data-name="Path 130" d="M857,493.5a6.034,6.034,0,1,0-7.258,4.487A6.032,6.032,0,0,0,857,493.5Z" transform="translate(184.216 102.36)" fill="#fff"/>
    <path id="Path_131" data-name="Path 131" d="M899.4,303.134a6.034,6.034,0,1,0-7.259,4.487A6.034,6.034,0,0,0,899.4,303.134Z" transform="translate(198.933 94.547)" fill="#fff"/>
    <path id="Path_167" data-name="Path 167" d="M647.986,985.627v62.324H636.957l-67.924-67.133V958.886l67.924-67.1h11.029ZM632.18,1063.4H472.817v-10.377l69.165-67.381h21.033l69.165,67.381Zm-175.169-15.511V891.784H468.04l67.924,67.1v21.933l-67.924,67.117Zm15.806-171.632H632.18V886.65l-69.165,67.381H541.982L472.817,886.65V876.258Zm96.17-7.508H450v202.112H654.966V868.812Z" transform="translate(42.028 147.847)" fill="#b2b6bb"/>
    <path id="Path_181" data-name="Path 181" d="M1240.7,976.459v60.975h-10.858l-66.466-65.675V950.338l66.466-65.69H1240.7v91.811Zm-15.511,76.1H1069.274V1042.4l67.691-65.938h20.584l67.691,65.938v10.16Zm-171.431-15.123V884.6h10.858l66.466,65.737v21.468l-66.481,65.675Zm15.511-167.956H1225.24v10.176l-67.691,65.923h-20.584l-67.691-65.923V869.478Zm94.154-7.337H1047v197.768h200.56V862.141Z" transform="translate(203.643 144.205)" fill="#b2b6bb"/>
    <path id="Path_188" data-name="Path 188" d="M480.76,692.712l.233-.372C480.806,692.464,480.744,692.6,480.76,692.712Z" transform="translate(58.06 161.862)" fill="#f4f4f4" opacity="0.2"/>
    <path id="Path_189" data-name="Path 189" d="M447.512,673.189c.093.326.652.62,1.3.9C448.427,673.763,447.59,673.468,447.512,673.189Z" transform="translate(82.15 156.355)" fill="#f4f4f4" opacity="0.2"/>
    <path id="Path_190" data-name="Path 190" d="M482.59,691.544a6.5,6.5,0,0,1,1.551-1.024A5.292,5.292,0,0,0,482.59,691.544Z" transform="translate(58.664 161.279)" fill="#f4f4f4" opacity="0.2"/>
    <path id="Path_191" data-name="Path 191" d="M417.66,706.51a1.59,1.59,0,0,0,.233.388Z" transform="translate(65.698 165.897)" fill="#f4f4f4" opacity="0.2"/>
    <path id="Path_192" data-name="Path 192" d="M591.749,845.637l-.62-.977C591.346,844.97,591.532,845.311,591.749,845.637Z" transform="translate(96.524 205.178)" fill="#f4f4f4" opacity="0.2"/>
    <path id="Path_193" data-name="Path 193" d="M340.27,757.106l.729-.14a2.966,2.966,0,0,0,.527-.155Z" transform="translate(23.046 180.236)" fill="#f4f4f4" opacity="0.2"/>
    <path id="Path_194" data-name="Path 194" d="M357.691,747.2a3.391,3.391,0,0,0,.388-.574A1.751,1.751,0,0,1,357.691,747.2Z" transform="translate(32.648 177.306)" fill="#f4f4f4" opacity="0.2"/>
    <path id="Path_195" data-name="Path 195" d="M630.825,935.387a.822.822,0,0,1,0-.326A1.147,1.147,0,0,0,630.825,935.387Z" transform="translate(110.384 184.393)" fill="#f4f4f4" opacity="0.2"/>
    <path id="Path_196" data-name="Path 196" d="M1057.459,751.721a5.015,5.015,0,0,1-.915,0h-2.4A9.7,9.7,0,0,0,1057.459,751.721Z" transform="translate(257.657 178.803)" fill="#f4f4f4" opacity="0.2"/>
    <path id="Path_197" data-name="Path 197" d="M1206.35,720.528l.341-.419a2.4,2.4,0,0,0-.341.419Z" transform="translate(291.465 169.767)" fill="#f4f4f4" opacity="0.2"/>
    <path id="Path_198" data-name="Path 198" d="M591.2,844.775c-.073-.106-.14-.214-.2-.326A3.2,3.2,0,0,0,591.2,844.775Z" transform="translate(96.496 205.2)" fill="#f4f4f4" opacity="0.2"/>
    <path id="Path_199" data-name="Path 199" d="M478.436,686.884a29.852,29.852,0,0,0-1.737-2.978C476.932,683.72,477.63,685.039,478.436,686.884Z" transform="translate(56.606 159.198)" fill="#f4f4f4" opacity="0.2"/>
    <path id="Path_200" data-name="Path 200" d="M875,939.348a4.228,4.228,0,0,0,.791-.217Z" transform="translate(195.465 186.636)" fill="#f4f4f4" opacity="0.2"/>
    <path id="Path_201" data-name="Path 201" d="M1052.07,820.843c.915-.372,1.861-.713,2.807-.993C1054.428,820.083,1053.156,820.362,1052.07,820.843Z" transform="translate(256.986 198.111)" fill="#f4f4f4" opacity="0.2"/>
    <path id="Path_202" data-name="Path 202" d="M1053.7,751.859a3.592,3.592,0,0,1,.683,0,2.4,2.4,0,0,0-.683,0Z" transform="translate(257.765 178.848)" fill="#f4f4f4" opacity="0.2"/>
    <path id="Path_203" data-name="Path 203" d="M480.76,692.712l.233-.372C480.806,692.464,480.744,692.6,480.76,692.712Z" transform="translate(58.06 161.862)" opacity="0.2"/>
    <path id="Path_204" data-name="Path 204" d="M447.512,673.189c.093.326.652.62,1.3.9C448.427,673.763,447.59,673.468,447.512,673.189Z" transform="translate(82.15 156.355)" opacity="0.2"/>
    <path id="Path_205" data-name="Path 205" d="M482.59,691.544a6.5,6.5,0,0,1,1.551-1.024A5.292,5.292,0,0,0,482.59,691.544Z" transform="translate(58.664 161.279)" opacity="0.2"/>
    <path id="Path_206" data-name="Path 206" d="M417.66,706.51a1.59,1.59,0,0,0,.233.388Z" transform="translate(65.698 165.897)" opacity="0.2"/>
    <path id="Path_207" data-name="Path 207" d="M591.749,845.637l-.62-.977C591.346,844.97,591.532,845.311,591.749,845.637Z" transform="translate(96.524 205.178)" opacity="0.2"/>
    <path id="Path_208" data-name="Path 208" d="M340.27,757.106l.729-.14a2.966,2.966,0,0,0,.527-.155Z" transform="translate(23.046 180.236)" opacity="0.2"/>
    <path id="Path_209" data-name="Path 209" d="M357.691,747.2a3.391,3.391,0,0,0,.388-.574A1.751,1.751,0,0,1,357.691,747.2Z" transform="translate(32.648 177.306)" opacity="0.2"/>
    <path id="Path_210" data-name="Path 210" d="M630.825,935.387a.822.822,0,0,1,0-.326A1.147,1.147,0,0,0,630.825,935.387Z" transform="translate(110.384 184.393)" opacity="0.2"/>
    <path id="Path_211" data-name="Path 211" d="M1057.459,751.721a5.015,5.015,0,0,1-.915,0h-2.4A9.7,9.7,0,0,0,1057.459,751.721Z" transform="translate(257.657 178.803)" opacity="0.2"/>
    <path id="Path_212" data-name="Path 212" d="M1206.35,720.528l.341-.419a2.4,2.4,0,0,0-.341.419Z" transform="translate(291.465 169.767)" opacity="0.2"/>
    <path id="Path_213" data-name="Path 213" d="M591.2,844.775c-.073-.106-.14-.214-.2-.326A3.2,3.2,0,0,0,591.2,844.775Z" transform="translate(96.496 205.2)" opacity="0.2"/>
    <path id="Path_214" data-name="Path 214" d="M1052.07,820.843c.915-.372,1.861-.713,2.807-.993C1054.428,820.083,1053.156,820.362,1052.07,820.843Z" transform="translate(256.986 198.111)" opacity="0.2"/>
    <path id="Path_215" data-name="Path 215" d="M1053.7,751.859a3.592,3.592,0,0,1,.683,0,2.4,2.4,0,0,0-.683,0Z" transform="translate(257.765 178.848)" opacity="0.2"/>
    <path id="Path_216" data-name="Path 216" d="M751.191,860a3.682,3.682,0,0,1,.45.14.842.842,0,0,0-.45-.14Z" transform="translate(152.33 209.654)" fill="#fff"/>
    <path id="Path_217" data-name="Path 217" d="M673.1,853.221c-.248,0,0,.109.558.295Z" transform="translate(125.064 207.703)" fill="#fff"/>
    <path id="Path_218" data-name="Path 218" d="M956.735,813.859H873.9L858.967,874.57a322.036,322.036,0,0,0,12.673,195.085c13.185,33.459,28.711,61.581,43.68,61.581s30.48-28.122,43.664-61.581A322.179,322.179,0,0,0,971.672,874.57l-14.937-60.665Z" transform="translate(176.127 117.595)" fill="#4d61fc"/>
    <path id="Path_219" data-name="Path 219" d="M956.734,814.1H873.9l-14.937,60.665a322.067,322.067,0,0,0,12.673,195.116c13.185,33.458,28.711,61.564,43.68,61.564s30.479-28.106,43.664-61.564A322.178,322.178,0,0,0,971.671,874.8l-14.937-60.664Z" transform="translate(176.125 117.728)" fill="#5aaaff" opacity="0.2"/>
    <path id="Path_220" data-name="Path 220" d="M944.385,813.859H877.33l-12.1,49.124A260.812,260.812,0,0,0,875.5,1020.919c10.672,27.1,23.267,49.853,35.366,49.853s24.678-22.755,35.366-49.853a260.8,260.8,0,0,0,10.253-157.936Z" transform="translate(180.969 117.595)" fill="#5aaaff" opacity="0.2"/>
    <path id="Path_221" data-name="Path 221" d="M932.066,813.859h-51.3l-9.307,37.568a199.479,199.479,0,0,0,7.911,120.864c8.175,20.723,17.776,38.142,27.052,38.142s18.877-17.419,27.036-38.142a199.487,199.487,0,0,0,7.864-120.8l-9.307-37.568Z" transform="translate(185.783 169.455)" fill="#5aaaff" opacity="0.2"/>
    <path id="Path_222" data-name="Path 222" d="M919.715,813.859H884.194l-6.406,26.028a138.2,138.2,0,0,0,5.429,83.668c5.662,14.348,12.316,26.369,18.738,26.369s13.076-12.052,18.722-26.369a138.041,138.041,0,0,0,5.444-83.668l-6.406-26.028Z" transform="translate(190.616 178.601)" fill="#fff"/>
    <path id="Path_223" data-name="Path 223" d="M945.457,811.4v-5.972h14.456l-14.377-54.863H872.647L858.27,805.424h14.457V811.4h2.761l-10.144,38.732h87.514L942.7,811.4Z" transform="translate(181.634 166.88)" fill="#b2b6bb"/>
    <path id="Path_224" data-name="Path 224" d="M899.008,790.087H867.77V785.93h31.238Z" transform="translate(190.601 188.086)" opacity="0.2"/>
    <path id="Path_225" data-name="Path 225" d="M871.636,750.881,858.172,804.55h44.7V750.881Z" transform="translate(186.244 172.514)" opacity="0.2"/>
    <path id="Path_226" data-name="Path 226" d="M873.089,789.779,862.371,828.79H902.1V789.779Z" transform="translate(188.077 185.026)" opacity="0.2"/>
    <path id="Path_227" data-name="Path 227" d="M867.531,986.176h73.322v-565.9h-6.716v-10.5h6.716V398.765L910.9,323.039H897.313l-29.782,75.9v11.013h5.522v10.331h-5.522Z" transform="translate(187.126 16.16)" fill="#b2b6bb"/>
    <path id="Path_228" data-name="Path 228" d="M867.531,986.176h73.322v-565.9h-6.716v-10.5h6.716V398.765L910.9,323.039H897.313l-29.782,75.9v11.013h5.522v10.331h-5.522Z" transform="translate(187.126 16.16)" fill="#b2b6bb"/>
    <path id="Path_229" data-name="Path 229" d="M867.77,662.933h31.891V567.539H867.77Z" transform="translate(190.55 118.488)" opacity="0.2"/>
    <path id="Path_230" data-name="Path 230" d="M867.77,720.728h31.891V629.8H867.77Z" transform="translate(190.55 135.573)" opacity="0.2"/>
    <path id="Path_231" data-name="Path 231" d="M867.77,728.878h31.891V688.75H867.77Z" transform="translate(190.55 156.827)" opacity="0.2"/>
    <path id="Path_232" data-name="Path 232" d="M867.77,740.438h31.891V711.82H867.77Z" transform="translate(190.55 164.467)" opacity="0.2"/>
    <path id="Path_233" data-name="Path 233" d="M867.77,758.91h31.891V730.09H867.77Z" transform="translate(190.55 169.558)" opacity="0.2"/>
    <path id="Path_234" data-name="Path 234" d="M934.193,796.538H869.961l.217-.853L882,750.439l1.334.357-11.6,44.362h60.742L922.156,750.78l1.334-.31Z" transform="translate(188.701 173.273)" opacity="0.3"/>
    <path id="Path_235" data-name="Path 235" d="M867.77,539.789h31.891V446.52H867.77Z" transform="translate(190.55 86.283)" fill="#5aaaff" opacity="0.2"/>
    <path id="Path_236" data-name="Path 236" d="M867.77,600.33h31.891V507.619H867.77Z" transform="translate(190.55 102.679)" fill="#5aaaff" opacity="0.2"/>
    <path id="Path_237" data-name="Path 237" d="M896.216,323.039,867.77,399.013v10.935h5.677v10.331H867.77V514.06h31.891V323.132Z" transform="translate(190.55 49.115)" fill="#5aaaff" opacity="0.2"/>
    <path id="Path_238" data-name="Path 238" d="M879.079,942.86h38.778V401.75H879.079Zm40.159,1.38H877.7V400.369h41.539Z" transform="translate(193.196 38.144)" opacity="0.3"/>
    <path id="Path_239" data-name="Path 239" d="M940.62,691.511H867.531V688.75H940.62Z" transform="translate(187.145 160.604)" fill="#61656d"/>
    <path id="Path_240" data-name="Path 240" d="M942.927,719.99H866.441v-8.33h76.486Z" transform="translate(186.494 166.547)" fill="#61656d"/>
    <path id="Path_241" data-name="Path 241" d="M942.927,738.42H866.441v-8.33h76.486Z" transform="translate(186.494 171.772)" fill="#61656d"/>
    <path id="Path_242" data-name="Path 242" d="M942.927,756.85H866.441V748.52h76.486Z" transform="translate(186.494 176.997)" fill="#61656d"/>
    <path id="Path_243" data-name="Path 243" d="M940.62,630.707H867.531v-2.746H940.62Z" transform="translate(187.145 143.313)" fill="#61656d"/>
    <path id="Path_244" data-name="Path 244" d="M960.4,787.8H858.039v-2.761H960.4Z" transform="translate(181.496 187.994)" fill="#61656d"/>
    <path id="Path_245" data-name="Path 245" d="M928.754,820.134H872.82l7.6-30.464,1.334.341-7.166,28.742h52.428L920.564,790l1.349-.31Z" transform="translate(190.356 186.032)" opacity="0.3"/>
    <path id="Path_246" data-name="Path 246" d="M890.88,780.365H914.52V767.04H890.88Zm25.02,1.365H889.531V765.66H915.9v16.07Z" transform="translate(198.495 180.978)" opacity="0.3"/>
    <path id="Path_247" data-name="Path 247" d="M914.965,774.329h-25v-1.38h25Z" transform="translate(198.754 184.711)" opacity="0.3"/>
    <path id="Path_248" data-name="Path 248" d="M940.837,445.6H867.531v2.854h73.306Z" transform="translate(187.127 91.432)" fill="#61656d"/>
    <path id="Path_249" data-name="Path 249" d="M940.837,506.34H867.531v2.854h73.306Z" transform="translate(187.127 108.709)" fill="#61656d"/>
    <path id="Path_250" data-name="Path 250" d="M940.837,567.07H867.531v2.854h73.306Z" transform="translate(187.127 125.983)" fill="#61656d"/>
    <path id="Path_251" data-name="Path 251" d="M934.136,383.139h6.716V372.125l-.295-.744H867.9l-.372.915v11.013h5.522Z" transform="translate(187.126 69.926)" fill="#5aaaff"/>
    <path id="Path_252" data-name="Path 252" d="M940.837,391.619H867.531v21.406h73.306Z" transform="translate(187.127 75.2)" fill="#5aaaff"/>
    <path id="Path_253" data-name="Path 253" d="M869.441,388.133H866.68V385h75.726v3.133H869.441Z" transform="translate(186.638 74.182)" fill="#61656d"/>
    <path id="Path_254" data-name="Path 254" d="M941.2,788.24H866.98v2.854H941.2Z" transform="translate(186.865 188.894)" fill="#61656d"/>
    <path id="Path_255" data-name="Path 255" d="M951.289,816.331h-88.91V813.57h88.91Z" transform="translate(184.086 196.11)" fill="#61656d"/>
    <path id="Path_256" data-name="Path 256" d="M794.774,813.859h-82.83L697.006,874.57a322.035,322.035,0,0,0,12.673,195.085c13.185,33.459,28.711,61.581,43.68,61.581s30.48-28.122,43.664-61.581A322.177,322.177,0,0,0,809.711,874.57l-14.937-60.665Z" transform="translate(122.597 117.595)" fill="#4d61fc"/>
    <path id="Path_257" data-name="Path 257" d="M794.773,814.1h-82.83l-14.937,60.665a322.066,322.066,0,0,0,12.673,195.116c13.185,33.458,28.711,61.564,43.68,61.564s30.48-28.106,43.664-61.564A322.179,322.179,0,0,0,809.71,874.8l-14.937-60.664Z" transform="translate(122.595 117.728)" fill="#5aaaff" opacity="0.2"/>
    <path id="Path_258" data-name="Path 258" d="M782.424,813.859H715.369l-12.1,49.124a260.812,260.812,0,0,0,10.268,157.936c10.672,27.1,23.267,49.853,35.366,49.853s24.678-22.755,35.35-49.853a260.7,260.7,0,0,0,10.268-157.936Z" transform="translate(126.839 117.595)" fill="#5aaaff" opacity="0.2"/>
    <path id="Path_259" data-name="Path 259" d="M770.109,813.859h-51.3l-9.307,37.568a199.477,199.477,0,0,0,7.911,120.864c8.174,20.723,17.776,38.142,27.052,38.142s18.877-17.419,27.036-38.142a199.39,199.39,0,0,0,7.849-120.8l-9.307-37.568Z" transform="translate(131.076 169.455)" fill="#5aaaff" opacity="0.2"/>
    <path id="Path_260" data-name="Path 260" d="M757.754,813.859H722.234l-6.406,26.028a138.2,138.2,0,0,0,5.429,83.668c5.662,14.348,12.316,26.369,18.738,26.369,4.842,0,14.59-16.776,14.59-16.776s2.743-6.071,4.132-9.593a138.04,138.04,0,0,0,5.444-83.668l-6.406-26.028Z" transform="translate(135.345 178.601)" fill="#fff"/>
    <path id="Path_261" data-name="Path 261" d="M783.5,811.4v-5.972h14.456l-14.379-54.863H710.688l-14.379,54.863h14.456V811.4h2.761l-10.16,38.732H790.9L780.737,811.4Z" transform="translate(127.387 166.88)" fill="#b2b6bb"/>
    <path id="Path_262" data-name="Path 262" d="M737.049,790.087h-31.24V785.93h31.24Z" transform="translate(134.783 188.086)" opacity="0.2"/>
    <path id="Path_263" data-name="Path 263" d="M709.675,750.881,696.211,804.55h44.7V750.881Z" transform="translate(130.716 172.514)" opacity="0.2"/>
    <path id="Path_264" data-name="Path 264" d="M711.128,789.779,700.41,828.79h39.724V789.779Z" transform="translate(132.441 185.026)" opacity="0.2"/>
    <path id="Path_265" data-name="Path 265" d="M705.57,986.176h73.322v-565.9h-6.716v-10.5h6.716V398.765L748.94,323.039H735.352l-29.782,75.9v11.013h5.506v10.331H705.57Z" transform="translate(132.23 16.16)" fill="#b2b6bb"/>
    <path id="Path_266" data-name="Path 266" d="M705.57,986.176h73.322v-565.9h-6.716v-10.5h6.716V398.765L748.94,323.039H735.352l-29.782,75.9v11.013h5.506v10.331H705.57Z" transform="translate(132.23 16.16)" fill="#b2b6bb"/>
    <path id="Path_267" data-name="Path 267" d="M705.809,662.933H737.7V567.539H705.809Z" transform="translate(134.746 118.488)" opacity="0.2"/>
    <path id="Path_268" data-name="Path 268" d="M705.809,723.852H737.7V627.961H705.809Z" transform="translate(134.746 134.586)" opacity="0.2"/>
    <path id="Path_269" data-name="Path 269" d="M705.809,728.878H737.7V688.75H705.809Z" transform="translate(134.746 156.827)" opacity="0.2"/>
    <path id="Path_270" data-name="Path 270" d="M705.809,740.438H737.7V711.82H705.809Z" transform="translate(134.746 164.467)" opacity="0.2"/>
    <path id="Path_271" data-name="Path 271" d="M705.809,758.91H737.7V730.09H705.809Z" transform="translate(134.746 169.558)" opacity="0.2"/>
    <path id="Path_272" data-name="Path 272" d="M772.232,796.538H708l.217-.853,11.82-45.246,1.334.357-11.6,44.362H770.51L760.2,750.78l1.334-.31Z" transform="translate(133.602 173.273)" opacity="0.3"/>
    <path id="Path_273" data-name="Path 273" d="M705.809,539.789H737.7V446.52H705.809Z" transform="translate(134.746 86.283)" fill="#5aaaff" opacity="0.2"/>
    <path id="Path_274" data-name="Path 274" d="M705.809,600.33H737.7V507.619H705.809Z" transform="translate(134.746 102.679)" fill="#5aaaff" opacity="0.2"/>
    <path id="Path_275" data-name="Path 275" d="M734.257,323.039l-28.448,75.974v10.935h5.677v10.331h-5.677V514.06H737.7V323.132Z" transform="translate(134.746 49.115)" fill="#5aaaff" opacity="0.2"/>
    <path id="Path_276" data-name="Path 276" d="M717.119,942.86H755.9V401.75H717.119Zm40.159,1.38H715.738V400.369h41.539Z" transform="translate(137.599 38.144)" opacity="0.3"/>
    <path id="Path_277" data-name="Path 277" d="M778.659,691.511H705.57V688.75h73.089Z" transform="translate(132.244 160.604)" fill="#61656d"/>
    <path id="Path_278" data-name="Path 278" d="M780.966,719.99H704.48v-8.33h76.486Z" transform="translate(131.67 166.547)" fill="#61656d"/>
    <path id="Path_279" data-name="Path 279" d="M780.966,738.42H704.48v-8.33h76.486Z" transform="translate(131.67 171.772)" fill="#61656d"/>
    <path id="Path_280" data-name="Path 280" d="M780.966,756.85H704.48V748.52h76.486Z" transform="translate(131.67 176.997)" fill="#61656d"/>
    <path id="Path_281" data-name="Path 281" d="M778.659,630.707H705.57v-2.746h73.089Z" transform="translate(132.244 143.313)" fill="#61656d"/>
    <path id="Path_282" data-name="Path 282" d="M798.437,787.8H696.078v-2.761H798.437Z" transform="translate(127.266 187.994)" fill="#61656d"/>
    <path id="Path_283" data-name="Path 283" d="M766.777,820.134H710.859l7.6-30.464,1.334.341-7.166,28.742h52.428L758.6,790l1.349-.31Z" transform="translate(135.073 186.032)" opacity="0.3"/>
    <path id="Path_284" data-name="Path 284" d="M728.92,780.365h23.639V767.04H728.92Zm25.02,1.365H727.57V765.66h26.369v16.07Z" transform="translate(142.574 180.978)" opacity="0.3"/>
    <path id="Path_285" data-name="Path 285" d="M753,774.329H728v-1.38h25Z" transform="translate(142.804 184.711)" opacity="0.3"/>
    <path id="Path_286" data-name="Path 286" d="M778.876,445.6H705.57v2.854h73.306Z" transform="translate(132.231 91.432)" fill="#61656d"/>
    <path id="Path_287" data-name="Path 287" d="M778.876,506.34H705.57v2.854h73.306Z" transform="translate(132.231 108.709)" fill="#61656d"/>
    <path id="Path_288" data-name="Path 288" d="M778.876,567.07H705.57v2.854h73.306Z" transform="translate(132.231 125.983)" fill="#61656d"/>
    <path id="Path_289" data-name="Path 289" d="M772.175,383.139h6.716V372.125l-.295-.744h-72.67l-.357.915v11.013h5.506Z" transform="translate(132.23 69.926)" fill="#5aaaff"/>
    <path id="Path_290" data-name="Path 290" d="M778.876,391.619H705.57v21.406h73.306Z" transform="translate(132.231 75.2)" fill="#5aaaff"/>
    <path id="Path_291" data-name="Path 291" d="M707.48,388.133h-2.761V385h75.726v3.133H707.48Z" transform="translate(131.796 74.182)" fill="#61656d"/>
    <path id="Path_292" data-name="Path 292" d="M779.241,788.24H705.02v2.854h74.221Z" transform="translate(131.989 188.894)" fill="#61656d"/>
    <path id="Path_293" data-name="Path 293" d="M789.336,816.331H700.41V813.57h88.926Z" transform="translate(129.541 196.11)" fill="#61656d"/>
    <path id="Path_294" data-name="Path 294" d="M870.675,470.635h-9.214v-60.7h9.214Z" transform="translate(190.113 78.288)" fill="#868a91"/>
    <path id="Path_295" data-name="Path 295" d="M762.494,470.635H752.52v-60.7h9.974Z" transform="translate(152.21 78.288)" fill="#868a91"/>
    <path id="Path_296" data-name="Path 296" d="M758,671.6V378.594c5.165-62.045,33.023-108.672,81-141.463,47.666,32.062,75.075,77.2,80.317,136.639V671.586Z" transform="translate(143.687 62.261)" fill="#ffd858"/>
    <path id="Path_297" data-name="Path 297" d="M778.74,271.072h99.644v.093h1.784c-.62-.946-1.21-1.908-1.846-2.854H778.74c-.621.946-1.226,1.908-1.83,2.854h1.768a.34.34,0,0,0,.062-.093Z" transform="translate(154.265 79.445)" opacity="0.3"/>
    <path id="Path_298" data-name="Path 298" d="M919.279,346.727l-2.156-.016H759.4l-1.3.016v2.559H919.279Z" transform="translate(143.731 63.314)" opacity="0.3"/>
    <path id="Path_299" data-name="Path 299" d="M919.317,350.4H758V479.283H919.317ZM765.4,476.553h-4.653V353.114H765.4Zm11.075,0H768.1V353.114h8.376Zm11.075,0h-8.376V353.114h8.376Zm11.075,0h-8.376V353.114h8.376Zm11.075,0h-8.268V353.114h8.361Zm11.075,0H812.4V353.114h8.376Zm11.075,0h-8.361V353.114h8.361Zm11.075,0h-8.361V353.114h8.361Zm11.075,0h-8.361V353.114H854Zm11.091,0h-8.376V353.114h8.376Zm11.075,0h-8.376V353.114h8.376Zm11.075,0h-8.376V353.114h8.376Zm11.075,0h-8.376V353.114h8.376Zm11.075,0h-8.376V353.114h8.376Zm2.714,0V353.114h5.072V476.553Z" transform="translate(143.687 58.925)" opacity="0.3"/>
    <path id="Path_300" data-name="Path 300" d="M760.75,438.129H919.306v-2.7H758.051v2.7Z" transform="translate(143.708 88.547)" opacity="0.3"/>
    <path id="Path_301" data-name="Path 301" d="M763.762,671.6V378.594c4.653-62.045,29.239-108.672,71.708-141.463,0,69.8-.31,434.47-.31,434.47Z" transform="translate(152.064 62.261)" opacity="0.2"/>
    <path id="Path_302" data-name="Path 302" d="M1088.322,872.423l-4.747-61.192a25.841,25.841,0,0,0-7.135-15.915l-89.035-91.982a14.734,14.734,0,0,1-3.924-7.538c-2.621-13.557-11.882-61.13-21.39-104.453-15.186-69.18-20.645-80.953-23.267-82.954v-1.1c0-85.762-29.378-149.839-55.639-149.839s-55.639,64.077-55.639,149.839v1.1c-2.7,2-8.159,13.758-23.344,82.954-9.493,43.323-18.768,90.9-21.374,104.453a14.85,14.85,0,0,1-3.94,7.538l-89.035,91.982a25.944,25.944,0,0,0-7.166,15.915l-4.746,61.161,136.313,46.984q0,9.121.76,19.063c0,6.422,9.307,7.756,13.79,8.1-.124.574-.279,1.148-.388,1.737a4.657,4.657,0,0,0,1.1,3.955c4.467,5.724,21.948,10.625,33.613,10.951,4.979,2.451,12.874,3.692,20.165,4,7.151-.31,15.03-1.551,19.994-4,11.664-.326,29.115-5.227,33.582-10.951a4.551,4.551,0,0,0,1.1-3.924c-.109-.621-.264-1.194-.4-1.815,4.653-.434,13.371-1.815,13.371-7.957q.714-9.911.76-19.017l136.747-47.123Z" transform="translate(98.417 25.319)" fill="#dadddf"/>
    <path id="Path_303" data-name="Path 303" d="M815.812,367.75c-15.837,9.989-19.932,71.677-21.9,87.747h9.974c-2.56,10.548-.946,28.479,8.345,28.479h6.654v330.39c-16.519,5.212-30.2,13.123-41.074,26.834V497.16c1.442-64.62,18.939-120.46,38-129.41Z" transform="translate(158.937 40.347)" fill="#ffd858" opacity="0.2"/>
    <path id="Path_304" data-name="Path 304" d="M822.154,482V784l-3.785,9.09a64.8,64.8,0,0,0-4.126,13.743c-1.272,7.337-3.568,13.541-4.017,24.322s-1.148,12.626-1.148,12.626L693.891,809.365v-17.14h-4.653V778.73l5.476-22.724a25.8,25.8,0,0,1,6.453-11.789l78.27-81.651a29.935,29.935,0,0,0,7.756-14.549l34.962-165.97Z" transform="translate(123.093 72.459)" fill="#5aaaff" opacity="0.2"/>
    <path id="Path_305" data-name="Path 305" d="M828.73,657.1s-2.606,25.811-3.289,49.559-2.063,50.427-2.063,50.427l-43.711-2.746v25.454l-10.1-2.28s-4.56-52.738,9.183-82.768C793.783,661.924,828.73,657.1,828.73,657.1Z" transform="translate(154.597 139.487)" opacity="0.2"/>
    <path id="Path_306" data-name="Path 306" d="M807.541,417.456l-3.335-9.958-4.017-.357-7.337,7.74,6.018,8.795Z" transform="translate(165.905 79.81)" fill="#61656d"/>
    <path id="Path_307" data-name="Path 307" d="M800.321,420.817l-4.684-6.856-5.724,3.986-1.722,12.083h9.989Z" transform="translate(164.459 81.758)" fill="#61656d"/>
    <path id="Path_308" data-name="Path 308" d="M815.837,421.659h10.408l5.429-16.24-15.837-2.839L800,405.419l5.429,16.24Z" transform="translate(167.215 78.398)" fill="#61656d"/>
    <path id="Path_309" data-name="Path 309" d="M818.113,417.456l8.655,6.22,6.018-8.795-7.337-7.74-4.018.357Z" transform="translate(174.667 79.81)" fill="#61656d"/>
    <path id="Path_310" data-name="Path 310" d="M824.41,420.817l2.156,9.214h9.974l-1.722-12.083-5.724-3.986Z" transform="translate(177.032 81.758)" fill="#61656d"/>
    <path id="Path_311" data-name="Path 311" d="M800,447.409h13.309V434.1H800Z" transform="translate(168.478 87.591)" opacity="0.3"/>
    <path id="Path_312" data-name="Path 312" d="M811.84,447.409h13.309V434.1H811.84Z" transform="translate(172.586 87.591)" opacity="0.3"/>
    <path id="Path_313" data-name="Path 313" d="M876.941,734.155H828.748V665.44h48.193ZM779.22,665.44h48.194v68.715H779.189V665.44Zm0-70.111h48.194v68.73H779.189V595.267Zm0-70.1h48.194v68.73H779.189v-68.73Zm0-70.1h48.194v68.777H779.189V455.2Zm97.721,68.715H828.748V455.139h48.193v68.715Zm-48.193,70.111v-68.73h48.193v68.73Zm48.193,1.365v68.73H828.748V595.267Zm1.381,69.413V453.789H777.809V735.536H878.322Z" transform="translate(154.767 74.117)" opacity="0.3"/>
    <path id="Path_314" data-name="Path 314" d="M825.591,763.757a4.529,4.529,0,0,0,.993-2.761c.295-11.959-3.288-29.471-7.756-38.2l30.449-1.722c5.6,6.2,10.191,19.467,12.13,29.471a1.858,1.858,0,0,1-.527,1.551c-2.9,3.723-15.884,10.408-35.273,11.711Z" transform="translate(172.91 165.519)" fill="#4d61fc"/>
    <path id="Path_315" data-name="Path 315" d="M827.408,763.257c19.389-1.3,29.471-7.99,32.418-11.713.682-.853.574-1.349.527-1.551s-.109-.512-.155-.76c-26.571,14.41-27.672,1.3-27.672,1.3a95.963,95.963,0,0,0-7.911-27.812l-1.427-.746-2.559.31c4.483,8.671,8.066,26.245,7.756,38.2a4.539,4.539,0,0,1-.977,2.763Z" transform="translate(173.735 165.931)" opacity="0.2"/>
    <path id="Path_316" data-name="Path 316" d="M809.574,763.757A4.441,4.441,0,0,1,808.565,761c-.279-11.959,3.288-29.471,7.756-38.2l-30.45-1.722c-5.6,6.2-10.191,19.467-12.114,29.471a1.824,1.824,0,0,0,.513,1.551c2.9,3.723,15.883,10.408,35.288,11.711Z" transform="translate(157.439 165.519)" fill="#4d61fc"/>
    <path id="Path_317" data-name="Path 317" d="M785.635,753.892c-8.578-7.135,6.2-30.371,6.2-30.371l.993-2.063-6.98-.388c-5.6,6.2-10.191,19.467-12.114,29.471a1.82,1.82,0,0,0,.512,1.551c2.9,3.723,12.766,8.981,32.744,11.835a6.7,6.7,0,0,1-1.163-1.8l-.59-.217C790.676,759.833,785.635,753.892,785.635,753.892Z" transform="translate(158.053 165.505)" opacity="0.2"/>
    <path id="Path_318" data-name="Path 318" d="M795.915,761.414c-.295-12.611,3.381-30.635,8.066-39.507l3.862.2c-.109,6.437-.171,12.549-.171,18.117,0,7.1,2.73,15.4,10.424,15.4s10.439-8.3,10.439-15.4c0-5.569-.078-11.7-.186-18.133l3.847-.2c4.653,8.888,8.392,26.9,8.1,39.554,0,3.4-10.563,5.041-22.135,5.569-11.7-.527-22.259-2.172-22.243-5.6Z" transform="translate(164.914 165.483)" fill="#4d61fc"/>
    <path id="Path_319" data-name="Path 319" d="M795.915,761.414c-.295-12.611,3.381-30.635,8.066-39.507l3.862.2c-.109,6.437-.171,12.549-.171,18.117,0,7.1,2.73,15.4,10.424,15.4s10.439-8.3,10.439-15.4c0-5.569-.078-11.7-.186-18.133l3.847-.2c4.653,8.888,8.392,26.9,8.1,39.554,0,3.4-10.563,5.041-22.135,5.569-11.7-.527-22.259-2.172-22.243-5.6Z" transform="translate(164.914 165.483)" opacity="0.2"/>
    <path id="Path_320" data-name="Path 320" d="M812.6,643.27V798.957l-6.2-2.544C804.5,758.627,808.04,702.725,812.6,643.27Z" transform="translate(170.968 132.26)" opacity="0.2"/>
    <path id="Path_321" data-name="Path 321" d="M762.065,655.792a17.945,17.945,0,1,1-1.362-6.873,17.965,17.965,0,0,1,1.362,6.873Z" transform="translate(141.509 143.078)" fill="#5aaaff"/>
    <path id="Path_322" data-name="Path 322" d="M695.7,769.011l-1.365-.155,1.737-15.915a30.132,30.132,0,0,1,7.973-17.295l78.177-83.078a25.078,25.078,0,0,0,6.2-11.835l30.681-141.944,1.35.295L789.781,641.027a26.484,26.484,0,0,1-6.561,12.409l-78.177,83.109a28.86,28.86,0,0,0-7.616,16.5Z" transform="translate(125.209 85.353)" opacity="0.3"/>
    <path id="Path_323" data-name="Path 323" d="M969.788,769l-1.737-15.914a28.763,28.763,0,0,0-7.6-16.5l-78.223-83.094a26.373,26.373,0,0,1-6.561-12.409L845,499.106l1.349-.295,30.681,141.944a24.9,24.9,0,0,0,6.2,11.835l78.177,83.094a30.138,30.138,0,0,1,7.973,17.3l1.737,15.915-1.365.155Z" transform="translate(175.13 85.357)" opacity="0.3"/>
    <path id="Path_324" data-name="Path 324" d="M877.526,541.383H845.449v-.822h32.077Z" transform="translate(182.845 118.591)" opacity="0.3"/>
    <path id="Path_325" data-name="Path 325" d="M786.613,541.383H754.551v-.822h32.062Z" transform="translate(151.529 118.591)" opacity="0.3"/>
    <path id="Path_326" data-name="Path 326" d="M853.587,765.28H829.25v-44.61h9.8V447.811h15.961v.822H839.891V721.492h-9.818v42.966h23.515Z" transform="translate(177.726 69.661)" fill="#3f4249"/>
    <path id="Path_327" data-name="Path 327" d="M837.76,654.515h7.523V642.633H837.76Zm8.345.822H837V641.811h9.167v13.526Z" transform="translate(181.617 146.271)" opacity="0.3"/>
    <path id="Path_328" data-name="Path 328" d="M800.065,765.28H775.728v-.822h23.515V721.492h-9.819V448.633H774.3v-.822h15.961V720.669h9.8Z" transform="translate(158.749 69.661)" fill="#3f4249"/>
    <path id="Path_329" data-name="Path 329" d="M778.111,654.515h7.523V642.633h-7.523Zm8.345.822h-9.167V641.811h9.167Z" transform="translate(160.867 146.271)" opacity="0.3"/>
    <path id="Path_330" data-name="Path 330" d="M850.56,675.568H863.5V657.652H850.56Zm13.774.822h-14.6V656.83h14.6v19.56Z" transform="translate(185.64 149.944)" opacity="0.3"/>
    <path id="Path_331" data-name="Path 331" d="M762.408,675.568h12.936V657.652H762.408Zm13.759.822h-14.6V656.83H776.2v19.56Z" transform="translate(155.061 149.944)" opacity="0.3"/>
    <path id="Path_332" data-name="Path 332" d="M806.138,720.623l-112.286-28.6.248-10.3,1.38.031-.217,9.2,111.216,28.339Z" transform="translate(125.89 155)" opacity="0.3"/>
    <path id="Path_333" data-name="Path 333" d="M853.416,720.623l-.326-1.334L966.927,690.95l-.217-9.2,1.365-.031.248,10.3Z" transform="translate(178.748 155)" opacity="0.3"/>
    <path id="Path_334" data-name="Path 334" d="M850.683,396.294l-2.932-11.556H793.928l-2.746,11.556-.791-.2,2.885-12.192h55.112l3.087,12.192Z" transform="translate(161.855 73.446)" opacity="0.3"/>
    <path id="Path_335" data-name="Path 335" d="M786.919,442.645h-10.47v-.822H786.1V420.386l3.816-3.816V391.83h.838v25.082l-3.831,3.816Z" transform="translate(160.242 73.822)" opacity="0.3"/>
    <path id="Path_336" data-name="Path 336" d="M848.731,442.645h-10.47V420.727l-3.831-3.816V391.83h.838v24.74l3.831,3.816v21.437h9.633Z" transform="translate(180.352 73.822)" opacity="0.3"/>
    <path id="Path_337" data-name="Path 337" d="M795.924,417.69H795.1V401.481l23.236-5.6.093.016,22.553,5.6V416.79h-.822V402.132l-21.824-5.4-22.414,5.4Z" transform="translate(164.538 76.379)" opacity="0.3"/>
    <path id="Path_338" data-name="Path 338" d="M789.714,748.909c-1.722-37.367,1.985-61.75,12.052-79.108l.729.4c-9.989,17.156-13.681,41.4-11.959,78.6h-.822Z" transform="translate(164.777 147.556)" opacity="0.3"/>
    <path id="Path_339" data-name="Path 339" d="M775.476,748.909c-2.234-37.382,2.575-61.781,15.589-79.108l.667.5c-8.686,11.54-18.272,30.9-15.434,78.549h-.822Z" transform="translate(159.561 147.556)" opacity="0.3"/>
    <path id="Path_340" data-name="Path 340" d="M835.125,748.868H834.3c1.722-37.227-1.97-61.44-11.944-78.6l.714-.4c10.067,17.3,13.774,41.663,12.052,79.107Z" transform="translate(176.246 147.574)" opacity="0.3"/>
    <path id="Path_341" data-name="Path 341" d="M850.673,748.885h-.822c2.218-37.227-2.544-61.409-15.511-78.549l.667-.5c13.014,17.311,17.822,41.71,15.511,79.107Z" transform="translate(180.144 147.566)" opacity="0.3"/>
    <path id="Path_342" data-name="Path 342" d="M854.065,388.292c-9.726-19.5-21.312-30.821-32.356-30.821s-22.631,11.323-32.357,30.821h15.666l5.336,4.653v3.1h22.708v-3.1l5.336-4.653Z" transform="translate(161.244 64.873)" fill="#5aaaff"/>
    <path id="Path_343" data-name="Path 343" d="M863.876,396.137h3.4c-.31-.931-.6-1.846-.915-2.761H843.525v-6.065H806.81v6.065H783.962c-.31.9-.589,1.83-.884,2.761Z" transform="translate(157.722 74.576)" fill="#3f4249"/>
    <path id="Path_344" data-name="Path 344" d="M1083.576,757.657a25.842,25.842,0,0,0-7.135-15.915l-89.035-91.982a14.735,14.735,0,0,1-3.924-7.538c-2.621-13.557-11.882-61.13-21.39-104.453-15.186-69.18-20.645-80.953-23.267-82.954h-2.745V796.326c-10.486-16.752-26.369-27.3-47.589-31.845-2.172-18.939-4.033-18.97-5.3-18.97s-3.1,0-5.289,18.862c-21.2,4.436-37.041,14.8-47.6,31.255V454.66h-2.746v.186c-2.7,2-8.159,13.759-23.344,82.954-9.493,43.323-18.768,90.9-21.374,104.453a14.85,14.85,0,0,1-3.94,7.539l-89.035,91.982a25.938,25.938,0,0,0-7.166,15.883l-4.746,61.161L814.254,865.8q0,9.121.76,19.063c0,6.422,9.307,7.756,13.79,8.1,0,0,3.49-15,10.858-24.337l3.8.186,21.483,1.039,3.025.14,4.157.2c-.124,6.685-.186,13.03-.186,18.8,0,7.368,2.932,15.977,11.215,15.977s11.215-8.609,11.215-15.977c0-5.786,0-12.13-.186-18.815h1.458l2.621-.124,3.1-.14,21.468-1.039,3.552-.171s7.352,6.546,11.091,24.291c4.653-.434,13.371-1.815,13.371-7.957q.714-9.912.76-19.017L1088.353,818.9Zm-4.281,37.8h4.452l.776,9.927h-5.228Zm-1.38,0v9.927h-9.555v-9.927ZM938.747,474.732l29.347,126.556-4.39,11.106.078.4c3.971,19.622,7.12,35.816,8.64,43.726a17.632,17.632,0,0,0,4.653,8.934l89.035,91.982a23.261,23.261,0,0,1,6.375,14.193l1.551,21.1H938.747Zm128.232,320.757v9.927h-9.57v-9.927Zm-10.951,0v9.927h-9.57v-9.927Zm-10.935,0v9.927h-9.57v-9.927Zm-10.951,0v9.927h-9.555v-9.927Zm-21.886,0v9.927h-9.571v-9.927Zm-10.936,0v9.927h-9.57v-9.927Zm-10.951,0v9.927H980.8v-9.927Zm-10.935,0v9.927h-9.571v-9.927Zm-10.951,0v9.927h-9.57v-9.927Zm-10.858,0v9.927H947.93v-9.927Zm-18.8,5.227v-5.227h7.849v9.927H941c-.745-1.551-1.551-3.1-2.358-4.653Zm-14.844-15.511c-4.142.915-14.658,2.683-33.38,2.776-.62-8.454-1.21-15.248-1.784-20.677,14.255,3.257,25.966,9.167,35.086,17.962Zm-46.41-17.993c-.574,5.444-1.179,12.254-1.784,20.77-19.032,0-29.658-1.861-33.846-2.776,9.152-8.826,21-14.767,35.552-17.931Zm-183.808,4.405a23.031,23.031,0,0,1,6.375-14.208l89.035-91.982a17.7,17.7,0,0,0,4.653-8.934c1.551-7.756,4.653-23.872,8.64-43.726v-.4l-4.39-11.106L827.392,474.7V792.681H692.242ZM827.47,795.458v4.762c-.915,1.675-1.784,3.382-2.606,5.165h-5.243v-9.927Zm-9.307,0v9.927h-9.555v-9.927Zm-10.858,0v9.927h-9.57v-9.927Zm-10.951,0v9.927H786.8v-9.927Zm-10.858,0v9.927h-9.57v-9.927Zm-10.951,0v9.927H764.9v-9.927Zm-10.858,0v9.927h-9.648v-9.927Zm-21.886,0v9.927h-9.57v-9.927Zm-10.951,0v9.927h-9.571v-9.927Zm-10.935,0v9.927h-9.57v-9.927Zm-10.951,0v9.927h-9.555v-9.927Zm-20.506,0h9.57v9.927h-9.57Zm-5.832,0h4.452v9.927H681.85Zm65.892,40.515-64.883-18.148-2.668-.915.651-8.562,66.9,3.955Zm4.219-30.588h-9.71v-9.927h9.555Zm61.843,49.078L753.434,837.4V812.582l67.133,4.018a149,149,0,0,0-6.142,37.894Zm57.7,12.967-43.432-2.11v24.818c-5.3-.543-10.935-1.923-10.935-5.413a259.257,259.257,0,0,1-.372-34.3c4.746,1.551,20.428,5.631,55.065,5.693-.31,3.909-.4,7.663-.481,11.339Zm.357-13.96c-36.2,0-51.621-4.653-54.956-5.8a154.964,154.964,0,0,1,2.559-18.986c4.653,1.861,19.048,6.1,53.048,6.111-.4,6.251-.62,12.518-.807,18.645Zm.776-21.437c-34.947,0-48.892-4.576-52.568-6.1a101.836,101.836,0,0,1,5.956-18.443c4.653,1.551,18.009,5.01,47.526,5.088-.5,6.36-.853,12.89-1.07,19.42Zm-45.432-27.067c.7-1.443,1.427-2.854,2.2-4.219h.186v-.357a68.307,68.307,0,0,1,9.307-12.812c2.684.729,13.448,3.1,35.909,3.257-.186,2.621-.357,5.367-.559,8.3q-.326,5.242-.62,10.687c-28.851-.093-42.051-3.381-46.58-4.886Zm55.282,97.3c-8.05,0-8.469-11.028-8.469-13.231,0-49.372,4.421-128.743,8.469-139.834,4.048,11.09,8.469,90.462,8.469,139.834-.155,2.172-.574,13.2-8.624,13.2Zm8.159-103.134c-.186-2.932-.372-5.677-.558-8.3,22.15-.124,32.791-2.528,35.474-3.257a69.684,69.684,0,0,1,11.773,17.388c-4.529,1.551-17.621,4.762-46.068,4.855q-.449-5.475-.776-10.718Zm.776,13.433c29.208-.093,42.439-3.459,47.077-5.072a100.25,100.25,0,0,1,5.817,18.412c-3.676,1.551-17.543,6.065-52.118,6.1-.279-6.53-.589-13.06-.884-19.467Zm1.039,22.228c33.659,0,47.945-4.25,52.6-6.111a154.071,154.071,0,0,1,2.42,18.939c-3.35,1.163-18.614,5.693-54.522,5.8-.186-6.112-.4-12.378-.651-18.66Zm54.832,50.055c0,3.4-5.63,4.777-10.935,5.3V865.336l-43.044,2.079q-.107-5.491-.279-11.246c34.311-.109,49.9-4.141,54.631-5.693a260.44,260.44,0,0,1-.372,34.373Zm64.884-47.511-61.611,17.28a148.239,148.239,0,0,0-6.2-37.971l67.753-4.018Zm.682-41.88h9.57v9.927h-9.57Zm4.219,40.515V812.334l66.9-3.955.652,8.562-2.668.915Z" transform="translate(98.426 57.474)" fill="#5aaaff"/>
    <path id="Path_345" data-name="Path 345" d="M767.676,645.73H723.422v11.418h44.254Z" transform="translate(140.073 147.573)" fill="#fff"/>
    <path id="Path_346" data-name="Path 346" d="M900.184,645.609H855.93V655.6h44.254Z" transform="translate(185.511 147.67)" fill="#5aaaff"/>
    <path id="Path_347" data-name="Path 347" d="M802.912,755.473c-.45-12.1,2.854-32.7,2.854-32.7l-1.986-.6c-4.653,9.012-8.159,26.664-7.864,39.088,0,3.428,10.548,5.072,22.243,5.6,11.571-.527,22.135-2.172,22.135-5.568C800.12,767.866,802.912,755.473,802.912,755.473Z" transform="translate(164.916 165.608)" opacity="0.2"/>
    <path id="Path_348" data-name="Path 348" d="M1206.736,720.381a12.4,12.4,0,0,0-1.086,1.288C1205.976,721.839,1206.27,721.033,1206.736,720.381Z" transform="translate(291.079 169.752)" fill="#f4f4f4"/>
    <path id="Path_349" data-name="Path 349" d="M592.353,846.716c-.264-.512-.558-.993-.822-1.427C591.826,845.754,592.089,846.235,592.353,846.716Z" transform="translate(96.656 205.301)" fill="#f4f4f4"/>
    <path id="Path_350" data-name="Path 350" d="M1570.3,1226.6V846.579q1.095-10.812,1.234-21.716c-.133-4.839-.106-9.757-2.217-13.96-5.163-10.47-18.835-9.741-25.538-1.815,2.947-6.778.73-14.906-3.982-19.684-5.429-5.4-12.942-6.453-19.751-4.886,3.9-4.964,2.323-12.921,2.376-18.924,0,1.675.5,3.273.624,4.932-.226-8.7-3.173-17.791-9.292-23.1a15.67,15.67,0,0,0-11.389-3.966,16.275,16.275,0,0,0-10.9,5.517,2,2,0,0,1-.279-1.241c.133.5.265.713.385.775.836-1.179-3.053-7.647-3.517-8.423a25.046,25.046,0,0,0-10.765-10.16c.849,1.66-1.142.093-1.752-.124a23.9,23.9,0,0,0-3.226-.9,19.732,19.732,0,0,0-6.637-.31,20.224,20.224,0,0,1,5.309.124c1.194.186,2.349,1.132,3.57,1.008-2.854.279-5.628-.869-8.548-.481a19.915,19.915,0,0,0-8.933,3.257,5.754,5.754,0,0,1,1.142-1.024,13.469,13.469,0,0,0-3.053,2.4,19.62,19.62,0,0,0,4.831-9.183c.544-2.109,2.018-6.2,1.328-8.392.982,3.319-1.168,6.98-1.659,10.175,4.712-10.579,2.655-24.337-2.456-34.125a42.53,42.53,0,0,0-11.283-13.79,35.261,35.261,0,0,0-7.38-4.452,9.937,9.937,0,0,1-2.894-1.148.589.589,0,0,1,.425,0c-9.292-3.1-19.26-1.024-25.353,8.314-1.46-1.551-2.509-3.1-4.367-3.909a18.106,18.106,0,0,0-8.681-1.551c1.327,0-1.327.465-1.686.558a34.258,34.258,0,0,0-4.367,1.427,24.55,24.55,0,0,0-8.6,6.453,30.583,30.583,0,0,0-5.309,9c-1.328,3.506-3.252,7.2-2.27,11.168-1.686-4.871-7.407-6.065-11.322-5.041-.2,0-4.5,1.024-3.69,0,1.713-2.218-.106-1.675-1.128.31.637-5.522-6.637-12.037-10.38-13.619-.823-.357-8.986-2.947-8.986-3.319,3.9-.589,7.579,1.83,11.1,3.366a27.584,27.584,0,0,0-18.464-3.575,29.835,29.835,0,0,0-16.95,9.284,31.626,31.626,0,0,0-5.88,8.3,21.68,21.68,0,0,1-1.779,3.738c-1.035,1.412-3.186.9-4.593,1.07a27.017,27.017,0,0,0-10.991,4.064,31.132,31.132,0,0,0-4.964,3.987c-.319.295-2.389,2.094-2.363,2.047-5.164,8.314-8.469,18.334-6.8,28.711a33.953,33.953,0,0,0,4.526,12.058,28.8,28.8,0,0,0,8.375,8.8c.292.2-.942,1.241-.146,1.923-.544-.884,1.234.838,1.447.558-.186.388-.266.465-.266.248-1.566,4.529-3.2,8.686-3.04,13.7a31.022,31.022,0,0,0,4.38,14.534.781.781,0,0,1-.305.248.326.326,0,0,0,.332-.2,8,8,0,0,1,.81,1.443,23.407,23.407,0,0,1-3.557-.636c-.266,0-2.137-.078-1.009-.4-10.818,1.365-19.618,10.625-23.733,22.1.2-.527,1.792-2.807,1.593-3.257.491.915-.929,3.8-1.221,4.653-.518,1.551-1.7,4.3-1.115,5.879-.159-.419.611-1.955.757-2.389.65-2.048.955-4.219,1.646-6.2a36.206,36.206,0,0,1,6.212-11.494,20.241,20.241,0,0,1,7.579-6.08c.6-.233,4.633-1.117,4.779-1.551-.093.31-1.248.59-1.168.931s.544.124,1.089,0c-15.344,4.653-23.136,25.95-18.742,43.059a25.613,25.613,0,0,0,7.672,13.417c1.832,1.551,4.566,1.908,6.146,3.723s2.4,4.9,3.982,6.918a21.884,21.884,0,0,0,11.946,8.05,35.279,35.279,0,0,0,4.725.744,8.2,8.2,0,0,0,2.137,0c.836-.155.717-1.163,1.327-1.349-.08,0,4.991,7.942,5.482,8.624.929,1.3,1.606,2.746,2.482,4.048,1.964,2.947.172,5.553.266,9.074.106,3.862-1.633,4.328-3.61,7.011-.9,1.241-1.619,2.591-2.416,3.924-.65,1.086-1.978,0-2.734-.357a17.341,17.341,0,0,0-10.486-1.272,24.806,24.806,0,0,0-2.974.7,6.534,6.534,0,0,0-1.832.853c-.106,0-.916,1.1-.584,1.008a24.828,24.828,0,0,0-5.309,3.568c-.743.667-2.137,3.1-3.106,3.1.451,0,1.765-2.7,2.057-3.1a15.974,15.974,0,0,1,5.031-4.654,19.053,19.053,0,0,1,16.035-2.218,20.811,20.811,0,0,0-11.508-.776c-.478.109-6.053,1.412-6.04,1.551,0-.62.651-1.163,1.5-1.551a24.089,24.089,0,0,0-7.765,5.8,23.175,23.175,0,0,0-3.571,5.026c-.717,1.427-1.327,3.443-2.933,3.831a31.606,31.606,0,0,1,1.7-4.281,21.678,21.678,0,0,1-2.283,4.033,11.187,11.187,0,0,1-3.982,2.109,12.488,12.488,0,0,0-3.982,2.358c-.425.45-.106,2.389-.5,2.234-.69-.264-1.327-1.784-2.23-2.218a15.018,15.018,0,0,0-4.194-1.256,32.967,32.967,0,0,0-9.411-.4,32.544,32.544,0,0,0-16.605,7.647,40.561,40.561,0,0,0-11.269,16.178,40.35,40.35,0,0,1,4.779-7.461,48.553,48.553,0,0,0-6.451,19.544c-.266,3.351-.358,4.824-2.945,6.623a22.4,22.4,0,0,0-6.4,7.414,31.933,31.933,0,0,0-3.544,10.082,34.466,34.466,0,0,0-.491,4.824c0,1.241.518,3.1-.2,4.2a35.548,35.548,0,0,0-4.5,7.756c-.637,1.551-.916,6.2-2.535,6.81.146.217,1.049,1.551,1.261,1.551-6.345,2.683-12.743,5.46-18.039,10.486,4.473-5.088,10.393-10.175,16.751-11.122-2.124-2.125-6.637,1.117-8.628,2.234a38.849,38.849,0,0,0-9.212,7.166,49.255,49.255,0,0,0-11.428,19.73,50.752,50.752,0,0,0-.677,23.949,57.023,57.023,0,0,0,3.849,11.944c1.035,2.28,2.96,6.3,5.787,5.987a4.591,4.591,0,0,0-1.9,2.776c2.655-1.551,2.655.884,1.951,3.211a45.649,45.649,0,0,0-2.655,12.642c-.106-.574-.544,1.024-.584,1.194a32.058,32.058,0,0,0-3.358-11.9c-1.5-3.1-1-6.871-1.526-10.3-.186-1.256-3.132-14.968-5.628-13.96-.239,0,2.761,7.756,2.2,8.655s-2.814-3.909-3-4.3a25.227,25.227,0,0,0-6.106-7.353,23.84,23.84,0,0,0-15.809-6.2,21.122,21.122,0,0,0-9.053,2.2c-2.084,1.039-4.261,4.142-6.73,3.614a24.365,24.365,0,0,1,13.831-7.383,22.235,22.235,0,0,0-9.172,3.288,24.765,24.765,0,0,0-3.982,3.211c-1.261,1.225-2.429.543-3.889.45,9.969-12.5,27.224-12.549,38.374-2.2a27.264,27.264,0,0,0-13.562-8.275,24.505,24.505,0,0,0-15.269,1.155,26.106,26.106,0,0,0-7.075,4.421c-1.792,1.551-3.318,4.917-5.668,5.1a24.275,24.275,0,0,0-14.72,6.686,30.878,30.878,0,0,0-5.309,6.654c-1.832,3.1-2.548,6.2-3.77,9.446-.916,2.466-3.491,3.63-5.177,5.227-1.964,1.846-2.655,4.778-5.5,4.855s-5.23,1.4-7.964,1.815c-2.243.357-4.619-2.2-6.491-3.288-5.309-3.1-12.066-3.537-17.84-2.5.677-.124,3.61.481,3.982,0-.186.6-6.491,3.319-7.075,3.1a1.781,1.781,0,0,0,1,0,33.767,33.767,0,0,0-13.433,10.02,30.314,30.314,0,0,0-4.964,8.05c-1.089,2.683-3.557,4-5.854,5.026-2.549,1.132-5.389.357-7.964.977-1.327.31-2.482,1.055-3.8,1.272s-2.734-.853-3.982-1.458-2.787-.512-3.982-1.3a14.753,14.753,0,0,1-3.146-3.831,37.784,37.784,0,0,0-7.964-7.756,44.77,44.77,0,0,1,8.323,9.695c-9.437-11.447-23.162-18.117-36.794-15.217a29.807,29.807,0,0,1,3-.977,42.179,42.179,0,0,0-10.274,3.614c-2.787,1.319-5.787,2.622-7.473,5.724-2.575-4.374-7.792-6.018-11.946-7.321a31.31,31.31,0,0,0-19.154,0c.106.667,4.725-.279,5.243-.372a31.89,31.89,0,0,1,11.243.512c5,1.039,12.331,2.637,14.6,8.764,1.168-1.024.239,1.35,0,1.768-3.146-5.258-9.663-7.089-14.76-8.143a30.728,30.728,0,0,0-21.065,3.257,37.386,37.386,0,0,0-9.052,7.042,26.611,26.611,0,0,1-3.159,3.444c-1.155.806-2.748.4-3.982.465-2.841.139-5.482,2.28-8.2,2.249a11.049,11.049,0,0,1-3.982-1.675,16.462,16.462,0,0,0-6.5-1.194,24.3,24.3,0,0,1,9.875,3.226c-1.686.962-3.61-.217-5.23-.791a33.707,33.707,0,0,0-5.694-.915c-1.593-.295-2.88-1.753-4.287-2.559s-3-1.163-4.115-2.575a96.269,96.269,0,0,0-9.371-10.113,25.541,25.541,0,0,0-4.619-3.769c-.558-.31-4.075-2.714-3.305-2.683a21.369,21.369,0,0,0-15.517-.636,24.3,24.3,0,0,0-7.115,3.94c-1.779,1.4-3.411,4.079-5.31,5.088-1.327.713-4.632-1.334-6.119-1.551-1.872-.279-3.544.714-4.805-1.4-.265-.419-5.309-9.307-5.429-9.105.7-1.055,6.318,6.871,6.876,7.88a27.509,27.509,0,0,0-5.177-7.631c-2.19-2.249-4.553-2.885-6.982-4.452-1.765-1.132-2.018-4.483-2.748-6.577a20.7,20.7,0,0,0-6-8.593,19.5,19.5,0,0,0-8.07-4.3,11.32,11.32,0,0,0-3.863-.5c-1.035.124-2.323.636-3.133-.4-1.633-2.11-2.721-4.359-4.686-6.2a21.052,21.052,0,0,0-6.637-4.2,21.632,21.632,0,0,0-13.733-.315,24.659,24.659,0,0,0-11.819,8.179,31.553,31.553,0,0,0-6.637,18.707c0,3.273,1.593,7.554.146,10.5A23.146,23.146,0,0,0,735.2,1100c-.77-.419-1.845-1.21-2.734-.744a4.094,4.094,0,0,0,1.553-1.787,5,5,0,0,0,.438-2.494,48.678,48.678,0,0,0-2.575,4.576c1.673-3.521.69-8.236-.226-11.835a18.467,18.467,0,0,0-1.619-4.653,13.581,13.581,0,0,1-1.513-2.56c.358,1.722,2.442,8.361,2.416,8.361-.358.078-2.11-5.289-2.336-5.863s-2.92-6.2-2.933-6.2c-.358-.233-2.2-1.551-2.549-1.117a11.114,11.114,0,0,0,4.258-2.752,13.46,13.46,0,0,0,2.9-4.569,45.922,45.922,0,0,0,2.92-13.712c-.584,1.644-3.637,17.062-5.309,16.085-.544-.326,1.805-8,2.018-8.795a48.488,48.488,0,0,0,.969-18.04,13.554,13.554,0,0,0,0-2.249,38.991,38.991,0,0,0-2-8.143,30.669,30.669,0,0,0-2.748-6.2c-.465-.76-2.283-2.963-1.964-4.017l1.978,2.482a31.44,31.44,0,0,1,3.225,6.84c2.137,5.91,2.562,12.223,3.106,18.614a48.031,48.031,0,0,0-5.787-25.889,41.982,41.982,0,0,1,2.256,5.072c-3.974-8.748-10.6-15.448-18.583-18.784a22.339,22.339,0,0,1,5.84,3.568,22.873,22.873,0,0,1,2.376,2.668c-1.234.636-6.371-3.382-7.46-3.924-4.367-2.187-8.787-3.6-13.566-2.528,1.752-1.66,3.186-2.544,2.84-5.165a29.956,29.956,0,0,0-1.633-7.058,21.174,21.174,0,0,0-2.562-4.653c-.7-.962-2.057-1.892-2.442-3.1-.5-1.551.186-3.924.159-5.6a27.292,27.292,0,0,0-1.1-7.042,21.563,21.563,0,0,0-5.482-9.307c-2.177-2.11-5.137-2.3-5.4-5.879-.558-7.508-1.792-14.6-4.991-21.064.664,1.443,1.181,2.978.611,3.568.889-.915-11.5-14.224-12.424-14.906a22.091,22.091,0,0,0-15.743-4.653c-6.119.729-9.424,4.095-11.681,10.656a8.2,8.2,0,0,1,3.624-3.8,10.149,10.149,0,0,1-2.256,3.1,14.008,14.008,0,0,0-2.15,4.653c.066-3.211-1.248-7.756-3.6-9.679-1-.807-2.389-1.241-3-2.559a39.612,39.612,0,0,1-1.327-5.057,11.764,11.764,0,0,1,4.765,1.458c.783.481,1.872,1.551,2.8,1.551,2.482-.217-1.712-2.994-2.283-3.319-2.3-1.38-5.309-1.194-6.756-3.63-1.9-3.1-3.159-6.313-5.588-8.888a19.464,19.464,0,0,0-29.335.4,24.574,24.574,0,0,0-4.274-6.5c-.611-.667-4.858-3.257-4.646-4.095a24,24,0,0,0,.252-8.884,22.546,22.546,0,0,0-2.973-8.179,29.832,29.832,0,0,0,9.849-7.849c2.257-2.823,5.92-8.547,3.982-12.6.332.682,1.579,4.359,2.522,3.893-.531.264-2.018-3.1-2.217-3.475,6,9.539,18.424,3.4,22.432-5.165,1.208-2.466.73-2.156,3.106-2.823a15.642,15.642,0,0,0,6.756-2.932,22.429,22.429,0,0,0,6.637-13.386c1.686-10.175-.876-22.321-6.929-30.03-4.964-6.328-15.251-11.416-21.5-4.653a8.128,8.128,0,0,0,.13-3.645,7.431,7.431,0,0,0-1.457-3.226c-1.327-1.877,1.049-3.552,2-5.134.12-.2,4.088-9.136,2.987-9.105-.531,0-2.522,5.925-2.841,6.654a15.174,15.174,0,0,1-2.4,3.924c-1.593,1.753-1.765.589-3.265-.527,4.473-4.111,8.176-13.091,4.951-19.5-.4-.791-1.434-2.141-1.327-3.1s2.217-1.256,2.907-1.846a7.917,7.917,0,0,0,2.332-4,8.993,8.993,0,0,0-.155-4.838,5.052,5.052,0,0,1,.69,1.024,18.747,18.747,0,0,0-1.327-2.342c10.446-4.529,14.017-19.808,10.3-31.255a27.854,27.854,0,0,0-5.3-9.428,23.1,23.1,0,0,0-8.13-6.083,28.178,28.178,0,0,0-7.5-1.861c-.438,0-4.831-.791-3.239-1.784-1.779.543-1.9-.9-2.562-2.792a32.649,32.649,0,0,0-4.407-8,30.289,30.289,0,0,0-12.3-10.486,22.767,22.767,0,0,0-16.327-.977c-.106,0-8.216,4.266-7.632,4.948.266.295,5.615-3.1,6.225-3.474,1.553-.822,6.132-2.9,7.539-1.288-.4-.45-3.146.7-3.677.853a22.363,22.363,0,0,0-6.544,2.621c7.513-4.405,17.707-3.444,24.755,1.784a18.759,18.759,0,0,0-11.362-2.947,23.445,23.445,0,0,1,14.681,7.554c-1.327,0-2.96-2.125-4.088-2.87a24.661,24.661,0,0,0-6.836-3.273,18.1,18.1,0,0,0-14.6,1.411,24.313,24.313,0,0,1,6.424-3.924,20.377,20.377,0,0,0-12.756,6.918c-2.3,2.7-5.827,8.516-3.982,12.5a11.765,11.765,0,0,0-3.148-4.01,9.689,9.689,0,0,0-4.325-2.024c-1.646-.357-7.964-.7-9.013,1.768a3.413,3.413,0,0,1,.571-.884,15.907,15.907,0,0,1-2.389,2.358.318.318,0,0,1,0-.186,6.247,6.247,0,0,0-.916,3.335,34.082,34.082,0,0,0-1-7.973,30.008,30.008,0,0,1,1.049,3.893,31.82,31.82,0,0,0-3.746-12.285,26.68,26.68,0,0,0-8.028-9.059c-7.513-5.3-16.061-4.436-23.083,1.241.411-.341-2.986-4.653-3.252-5.041a14.774,14.774,0,0,0-2.1-2.342,14.123,14.123,0,0,0-1.951-.946c.133.109.212.248.159.372-10.34-7.275-23.069-.217-31.233,8.128a34.062,34.062,0,0,1,5.721-4.39c-5.442,3.645-9.292,9.6-12.4,15.822,1.168-3.692-1.049-.512-1.633.962a66.477,66.477,0,0,0-2.323,7.011c-1.726,6.2-2.363,16.923.969,22.879a16.036,16.036,0,0,1-.4-2.885,45.861,45.861,0,0,0,2.15,6.965,23.29,23.29,0,0,0,1.885,3.707c.372.6,2.96,3.242,1.035,1.551,1.726,1.551-2.018-1.21-2.655-1.551-.956-.543-2.509-.589-3.172-1.66.2.326,1.434.419,1.779.527a11.493,11.493,0,0,1,3.982,2.684,18.644,18.644,0,0,0-11.15-5.677c-2.323-.388-6.637-.543-8.654,1.272.226-.2.916-.109,1.195-.171a22.561,22.561,0,0,0-11.256,6.546c-1.234,1.287-5.482,5.677-5.96,8.268a5.2,5.2,0,0,0-.372,1.039,22.749,22.749,0,0,0-.849,3.211c3.571-8.066,8.84-15.837,16.725-18.133a22.855,22.855,0,0,0-10.377,7.514,28.745,28.745,0,0,0-5.644,12.651,14.493,14.493,0,0,0-4.234-5.342,11.8,11.8,0,0,0-5.88-2.414A16.624,16.624,0,0,0,390.3,747.71c-6.916,5.46-9.292,16.271-9.292,25.516a45.317,45.317,0,0,1,1.792-12.409,45.842,45.842,0,0,0-1.035,16.426,57.855,57.855,0,0,1,.77-14.456,30.574,30.574,0,0,1,1.938-5.972,31.312,31.312,0,0,0,1.858-3.257c.292.791-1.208,2.776-1.54,3.412a27.217,27.217,0,0,0-2.137,7.414c-.743,4.111-1.553,10.1-.451,14.239a27.341,27.341,0,0,1,0-5.894c-.146,4.545.226,10.113,3.73,12.983-7.115-2.2-14.959-1.551-20.853,3.986a5.358,5.358,0,0,0,.65-.838,21.344,21.344,0,0,1-2.655,2.373,13.908,13.908,0,0,0-2.8,4.84,19.092,19.092,0,0,0-1.027,6.772,18.9,18.9,0,0,0,1.412,6.676c-4.553-5.522-11.309-6.685-17.468-5.4a13.208,13.208,0,0,0-4.739,2.9,14.044,14.044,0,0,1,2.111-1.551c-5.96,3.847-8.19,19.079-8.19,19.079v525.723H1552.915Z" transform="translate(18.693 39.212)" fill="#f4f4f4"/>
    <g id="Group_40" data-name="Group 40" transform="translate(351.064 710.847)" opacity="0.03">
      <path id="Path_351" data-name="Path 351" d="M1206.736,720.379a14.689,14.689,0,0,0-1.086,1.287C1205.976,721.837,1206.27,721.031,1206.736,720.379Z" transform="translate(-59.985 -644.771)" fill="#5aaaff" opacity="0.03"/>
      <path id="Path_352" data-name="Path 352" d="M592.353,846.716c-.264-.512-.558-.993-.822-1.427C591.826,845.754,592.089,846.235,592.353,846.716Z" transform="translate(-247.566 -575.93)" fill="#5aaaff" opacity="0.03"/>
      <path id="Path_353" data-name="Path 353" d="M1570.3,1226.6V846.579q1.095-10.812,1.234-21.716c-.133-4.839-.106-9.757-2.217-13.96-5.163-10.47-18.835-9.741-25.538-1.815,2.947-6.778.73-14.906-3.982-19.684-5.429-5.4-12.942-6.453-19.751-4.886,3.9-4.964,2.323-12.921,2.376-18.924,0,1.675.5,3.273.624,4.932-.226-8.7-3.173-17.791-9.292-23.1a15.67,15.67,0,0,0-11.389-3.966,16.275,16.275,0,0,0-10.9,5.517,2,2,0,0,1-.279-1.241c.133.5.265.713.385.775.836-1.179-3.053-7.647-3.517-8.423a25.046,25.046,0,0,0-10.765-10.16c.849,1.66-1.142.093-1.752-.124a23.9,23.9,0,0,0-3.226-.9,19.732,19.732,0,0,0-6.637-.31,20.224,20.224,0,0,1,5.309.124c1.194.186,2.349,1.132,3.57,1.008-2.854.279-5.628-.869-8.548-.481a19.915,19.915,0,0,0-8.933,3.257,5.754,5.754,0,0,1,1.142-1.024,13.469,13.469,0,0,0-3.053,2.4,19.62,19.62,0,0,0,4.831-9.183c.544-2.109,2.018-6.2,1.328-8.392.982,3.319-1.168,6.98-1.659,10.175,4.712-10.579,2.655-24.337-2.456-34.125a42.53,42.53,0,0,0-11.283-13.79,35.261,35.261,0,0,0-7.38-4.452,9.937,9.937,0,0,1-2.894-1.148.589.589,0,0,1,.425,0c-9.292-3.1-19.26-1.024-25.353,8.314-1.46-1.551-2.509-3.1-4.367-3.909a18.106,18.106,0,0,0-8.681-1.551c1.327,0-1.327.465-1.686.558a34.258,34.258,0,0,0-4.367,1.427,24.55,24.55,0,0,0-8.6,6.453,30.583,30.583,0,0,0-5.309,9c-1.328,3.506-3.252,7.2-2.27,11.168-1.686-4.871-7.407-6.065-11.322-5.041-.2,0-4.5,1.024-3.69,0,1.713-2.218-.106-1.675-1.128.31.637-5.522-6.637-12.037-10.38-13.619-.823-.357-8.986-2.947-8.986-3.319,3.9-.589,7.579,1.83,11.1,3.366a27.584,27.584,0,0,0-18.464-3.575,29.835,29.835,0,0,0-16.95,9.284,31.626,31.626,0,0,0-5.88,8.3,21.68,21.68,0,0,1-1.779,3.738c-1.035,1.412-3.186.9-4.593,1.07a27.017,27.017,0,0,0-10.991,4.064,31.132,31.132,0,0,0-4.964,3.987c-.319.295-2.389,2.094-2.363,2.047-5.164,8.314-8.469,18.334-6.8,28.711a33.953,33.953,0,0,0,4.526,12.058,28.8,28.8,0,0,0,8.375,8.8c.292.2-.942,1.241-.146,1.923-.544-.884,1.234.838,1.447.558-.186.388-.266.465-.266.248-1.566,4.529-3.2,8.686-3.04,13.7a31.022,31.022,0,0,0,4.38,14.534.781.781,0,0,1-.305.248.326.326,0,0,0,.332-.2,8,8,0,0,1,.81,1.443,23.407,23.407,0,0,1-3.557-.636c-.266,0-2.137-.078-1.009-.4-10.818,1.365-19.618,10.625-23.733,22.1.2-.527,1.792-2.807,1.593-3.257.491.915-.929,3.8-1.221,4.653-.518,1.551-1.7,4.3-1.115,5.879-.159-.419.611-1.955.757-2.389.65-2.048.955-4.219,1.646-6.2a36.206,36.206,0,0,1,6.212-11.494,20.241,20.241,0,0,1,7.579-6.08c.6-.233,4.633-1.117,4.779-1.551-.093.31-1.248.59-1.168.931s.544.124,1.089,0c-15.344,4.653-23.136,25.95-18.742,43.059a25.613,25.613,0,0,0,7.672,13.417c1.832,1.551,4.566,1.908,6.146,3.723s2.4,4.9,3.982,6.918a21.884,21.884,0,0,0,11.946,8.05,35.279,35.279,0,0,0,4.725.744,8.2,8.2,0,0,0,2.137,0c.836-.155.717-1.163,1.327-1.349-.08,0,4.991,7.942,5.482,8.624.929,1.3,1.606,2.746,2.482,4.048,1.964,2.947.172,5.553.266,9.074.106,3.862-1.633,4.328-3.61,7.011-.9,1.241-1.619,2.591-2.416,3.924-.65,1.086-1.978,0-2.734-.357a17.341,17.341,0,0,0-10.486-1.272,24.806,24.806,0,0,0-2.974.7,6.534,6.534,0,0,0-1.832.853c-.106,0-.916,1.1-.584,1.008a24.828,24.828,0,0,0-5.309,3.568c-.743.667-2.137,3.1-3.106,3.1.451,0,1.765-2.7,2.057-3.1a15.974,15.974,0,0,1,5.031-4.654,19.053,19.053,0,0,1,16.035-2.218,20.811,20.811,0,0,0-11.508-.776c-.478.109-6.053,1.412-6.04,1.551,0-.62.651-1.163,1.5-1.551a24.089,24.089,0,0,0-7.765,5.8,23.175,23.175,0,0,0-3.571,5.026c-.717,1.427-1.327,3.443-2.933,3.831a31.606,31.606,0,0,1,1.7-4.281,21.678,21.678,0,0,1-2.283,4.033,11.187,11.187,0,0,1-3.982,2.109,12.488,12.488,0,0,0-3.982,2.358c-.425.45-.106,2.389-.5,2.234-.69-.264-1.327-1.784-2.23-2.218a15.018,15.018,0,0,0-4.194-1.256,32.967,32.967,0,0,0-9.411-.4,32.544,32.544,0,0,0-16.605,7.647,40.561,40.561,0,0,0-11.269,16.178,40.35,40.35,0,0,1,4.779-7.461,48.553,48.553,0,0,0-6.451,19.544c-.266,3.351-.358,4.824-2.945,6.623a22.4,22.4,0,0,0-6.4,7.414,31.933,31.933,0,0,0-3.544,10.082,34.466,34.466,0,0,0-.491,4.824c0,1.241.518,3.1-.2,4.2a35.548,35.548,0,0,0-4.5,7.756c-.637,1.551-.916,6.2-2.535,6.81.146.217,1.049,1.551,1.261,1.551-6.345,2.683-12.743,5.46-18.039,10.486,4.473-5.088,10.393-10.175,16.751-11.122-2.124-2.125-6.637,1.117-8.628,2.234a38.849,38.849,0,0,0-9.212,7.166,49.255,49.255,0,0,0-11.428,19.73,50.752,50.752,0,0,0-.677,23.949,57.023,57.023,0,0,0,3.849,11.944c1.035,2.28,2.96,6.3,5.787,5.987a4.591,4.591,0,0,0-1.9,2.776c2.655-1.551,2.655.884,1.951,3.211a45.649,45.649,0,0,0-2.655,12.642c-.106-.574-.544,1.024-.584,1.194a32.058,32.058,0,0,0-3.358-11.9c-1.5-3.1-1-6.871-1.526-10.3-.186-1.256-3.132-14.968-5.628-13.96-.239,0,2.761,7.756,2.2,8.655s-2.814-3.909-3-4.3a25.227,25.227,0,0,0-6.106-7.353,23.84,23.84,0,0,0-15.809-6.2,21.122,21.122,0,0,0-9.053,2.2c-2.084,1.039-4.261,4.142-6.73,3.614a24.365,24.365,0,0,1,13.831-7.383,22.235,22.235,0,0,0-9.172,3.288,24.765,24.765,0,0,0-3.982,3.211c-1.261,1.225-2.429.543-3.889.45,9.969-12.5,27.224-12.549,38.374-2.2a27.264,27.264,0,0,0-13.562-8.275,24.505,24.505,0,0,0-15.269,1.155,26.106,26.106,0,0,0-7.075,4.421c-1.792,1.551-3.318,4.917-5.668,5.1a24.275,24.275,0,0,0-14.72,6.686,30.878,30.878,0,0,0-5.309,6.654c-1.832,3.1-2.548,6.2-3.77,9.446-.916,2.466-3.491,3.63-5.177,5.227-1.964,1.846-2.655,4.778-5.5,4.855s-5.23,1.4-7.964,1.815c-2.243.357-4.619-2.2-6.491-3.288-5.309-3.1-12.066-3.537-17.84-2.5.677-.124,3.61.481,3.982,0-.186.6-6.491,3.319-7.075,3.1a1.781,1.781,0,0,0,1,0,33.767,33.767,0,0,0-13.433,10.02,30.314,30.314,0,0,0-4.964,8.05c-1.089,2.683-3.557,4-5.854,5.026-2.549,1.132-5.389.357-7.964.977-1.327.31-2.482,1.055-3.8,1.272s-2.734-.853-3.982-1.458-2.787-.512-3.982-1.3a14.753,14.753,0,0,1-3.146-3.831,37.784,37.784,0,0,0-7.964-7.756,44.77,44.77,0,0,1,8.323,9.695c-9.437-11.447-23.162-18.117-36.794-15.217a29.807,29.807,0,0,1,3-.977,42.179,42.179,0,0,0-10.274,3.614c-2.787,1.319-5.787,2.622-7.473,5.724-2.575-4.374-7.792-6.018-11.946-7.321a31.31,31.31,0,0,0-19.154,0c.106.667,4.725-.279,5.243-.372a31.89,31.89,0,0,1,11.243.512c5,1.039,12.331,2.637,14.6,8.764,1.168-1.024.239,1.35,0,1.768-3.146-5.258-9.663-7.089-14.76-8.143a30.728,30.728,0,0,0-21.065,3.257,37.386,37.386,0,0,0-9.052,7.042,26.611,26.611,0,0,1-3.159,3.444c-1.155.806-2.748.4-3.982.465-2.841.139-5.482,2.28-8.2,2.249a11.049,11.049,0,0,1-3.982-1.675,16.462,16.462,0,0,0-6.5-1.194,24.3,24.3,0,0,1,9.875,3.226c-1.686.962-3.61-.217-5.23-.791a33.707,33.707,0,0,0-5.694-.915c-1.593-.295-2.88-1.753-4.287-2.559s-3-1.163-4.115-2.575a96.269,96.269,0,0,0-9.371-10.113,25.541,25.541,0,0,0-4.619-3.769c-.558-.31-4.075-2.714-3.305-2.683a21.369,21.369,0,0,0-15.517-.636,24.3,24.3,0,0,0-7.115,3.94c-1.779,1.4-3.411,4.079-5.31,5.088-1.327.713-4.632-1.334-6.119-1.551-1.872-.279-3.544.714-4.805-1.4-.265-.419-5.309-9.307-5.429-9.105.7-1.055,6.318,6.871,6.876,7.88a27.509,27.509,0,0,0-5.177-7.631c-2.19-2.249-4.553-2.885-6.982-4.452-1.765-1.132-2.018-4.483-2.748-6.577a20.7,20.7,0,0,0-6-8.593,19.5,19.5,0,0,0-8.07-4.3,11.32,11.32,0,0,0-3.863-.5c-1.035.124-2.323.636-3.133-.4-1.633-2.11-2.721-4.359-4.686-6.2a21.052,21.052,0,0,0-6.637-4.2,21.632,21.632,0,0,0-13.733-.315,24.659,24.659,0,0,0-11.819,8.179,31.553,31.553,0,0,0-6.637,18.707c0,3.273,1.593,7.554.146,10.5A23.146,23.146,0,0,0,735.2,1100c-.77-.419-1.845-1.21-2.734-.744a4.094,4.094,0,0,0,1.553-1.787,5,5,0,0,0,.438-2.494,48.678,48.678,0,0,0-2.575,4.576c1.673-3.521.69-8.236-.226-11.835a18.467,18.467,0,0,0-1.619-4.653,13.581,13.581,0,0,1-1.513-2.56c.358,1.722,2.442,8.361,2.416,8.361-.358.078-2.11-5.289-2.336-5.863s-2.92-6.2-2.933-6.2c-.358-.233-2.2-1.551-2.549-1.117a11.114,11.114,0,0,0,4.258-2.752,13.46,13.46,0,0,0,2.9-4.569,45.922,45.922,0,0,0,2.92-13.712c-.584,1.644-3.637,17.062-5.309,16.085-.544-.326,1.805-8,2.018-8.795a48.488,48.488,0,0,0,.969-18.04,13.554,13.554,0,0,0,0-2.249,38.991,38.991,0,0,0-2-8.143,30.669,30.669,0,0,0-2.748-6.2c-.465-.76-2.283-2.963-1.964-4.017l1.978,2.482a31.44,31.44,0,0,1,3.225,6.84c2.137,5.91,2.562,12.223,3.106,18.614a48.031,48.031,0,0,0-5.787-25.889,41.982,41.982,0,0,1,2.256,5.072c-3.974-8.748-10.6-15.448-18.583-18.784a22.339,22.339,0,0,1,5.84,3.568,22.873,22.873,0,0,1,2.376,2.668c-1.234.636-6.371-3.382-7.46-3.924-4.367-2.187-8.787-3.6-13.566-2.528,1.752-1.66,3.186-2.544,2.84-5.165a29.956,29.956,0,0,0-1.633-7.058,21.174,21.174,0,0,0-2.562-4.653c-.7-.962-2.057-1.892-2.442-3.1-.5-1.551.186-3.924.159-5.6a27.292,27.292,0,0,0-1.1-7.042,21.563,21.563,0,0,0-5.482-9.307c-2.177-2.11-5.137-2.3-5.4-5.879-.558-7.508-1.792-14.6-4.991-21.064.664,1.443,1.181,2.978.611,3.568.889-.915-11.5-14.224-12.424-14.906a22.091,22.091,0,0,0-15.743-4.653c-6.119.729-9.424,4.095-11.681,10.656a8.2,8.2,0,0,1,3.624-3.8,10.149,10.149,0,0,1-2.256,3.1,14.008,14.008,0,0,0-2.15,4.653c.066-3.211-1.248-7.756-3.6-9.679-1-.807-2.389-1.241-3-2.559a39.612,39.612,0,0,1-1.327-5.057,11.764,11.764,0,0,1,4.765,1.458c.783.481,1.872,1.551,2.8,1.551,2.482-.217-1.712-2.994-2.283-3.319-2.3-1.38-5.309-1.194-6.756-3.63-1.9-3.1-3.159-6.313-5.588-8.888a19.464,19.464,0,0,0-29.335.4,24.574,24.574,0,0,0-4.274-6.5c-.611-.667-4.858-3.257-4.646-4.095a24,24,0,0,0,.252-8.884,22.546,22.546,0,0,0-2.973-8.179,29.832,29.832,0,0,0,9.849-7.849c2.257-2.823,5.92-8.547,3.982-12.6.332.682,1.579,4.359,2.522,3.893-.531.264-2.018-3.1-2.217-3.475,6,9.539,18.424,3.4,22.432-5.165,1.208-2.466.73-2.156,3.106-2.823a15.642,15.642,0,0,0,6.756-2.932,22.429,22.429,0,0,0,6.637-13.386c1.686-10.175-.876-22.321-6.929-30.03-4.964-6.328-15.251-11.416-21.5-4.653a8.128,8.128,0,0,0,.13-3.645,7.431,7.431,0,0,0-1.457-3.226c-1.327-1.877,1.049-3.552,2-5.134.12-.2,4.088-9.136,2.987-9.105-.531,0-2.522,5.925-2.841,6.654a15.174,15.174,0,0,1-2.4,3.924c-1.593,1.753-1.765.589-3.265-.527,4.473-4.111,8.176-13.091,4.951-19.5-.4-.791-1.434-2.141-1.327-3.1s2.217-1.256,2.907-1.846a7.917,7.917,0,0,0,2.332-4,8.993,8.993,0,0,0-.155-4.838,5.052,5.052,0,0,1,.69,1.024,18.747,18.747,0,0,0-1.327-2.342c10.446-4.529,14.017-19.808,10.3-31.255a27.854,27.854,0,0,0-5.3-9.428,23.1,23.1,0,0,0-8.13-6.083,28.178,28.178,0,0,0-7.5-1.861c-.438,0-4.831-.791-3.239-1.784-1.779.543-1.9-.9-2.562-2.792a32.649,32.649,0,0,0-4.407-8,30.289,30.289,0,0,0-12.3-10.486,22.767,22.767,0,0,0-16.327-.977c-.106,0-8.216,4.266-7.632,4.948.266.295,5.615-3.1,6.225-3.474,1.553-.822,6.132-2.9,7.539-1.288-.4-.45-3.146.7-3.677.853a22.363,22.363,0,0,0-6.544,2.621c7.513-4.405,17.707-3.444,24.755,1.784a18.759,18.759,0,0,0-11.362-2.947,23.445,23.445,0,0,1,14.681,7.554c-1.327,0-2.96-2.125-4.088-2.87a24.661,24.661,0,0,0-6.836-3.273,18.1,18.1,0,0,0-14.6,1.411,24.313,24.313,0,0,1,6.424-3.924,20.377,20.377,0,0,0-12.756,6.918c-2.3,2.7-5.827,8.516-3.982,12.5a11.765,11.765,0,0,0-3.148-4.01,9.689,9.689,0,0,0-4.325-2.024c-1.646-.357-7.964-.7-9.013,1.768a3.413,3.413,0,0,1,.571-.884,15.907,15.907,0,0,1-2.389,2.358.318.318,0,0,1,0-.186,6.247,6.247,0,0,0-.916,3.335,34.082,34.082,0,0,0-1-7.973,30.008,30.008,0,0,1,1.049,3.893,31.82,31.82,0,0,0-3.746-12.285,26.68,26.68,0,0,0-8.028-9.059c-7.513-5.3-16.061-4.436-23.083,1.241.411-.341-2.986-4.653-3.252-5.041a14.774,14.774,0,0,0-2.1-2.342,14.123,14.123,0,0,0-1.951-.946c.133.109.212.248.159.372-10.34-7.275-23.069-.217-31.233,8.128a34.062,34.062,0,0,1,5.721-4.39c-5.442,3.645-9.292,9.6-12.4,15.822,1.168-3.692-1.049-.512-1.633.962a66.477,66.477,0,0,0-2.323,7.011c-1.726,6.2-2.363,16.923.969,22.879a16.036,16.036,0,0,1-.4-2.885,45.861,45.861,0,0,0,2.15,6.965,23.29,23.29,0,0,0,1.885,3.707c.372.6,2.96,3.242,1.035,1.551,1.726,1.551-2.018-1.21-2.655-1.551-.956-.543-2.509-.589-3.172-1.66.2.326,1.434.419,1.779.527a11.493,11.493,0,0,1,3.982,2.684,18.644,18.644,0,0,0-11.15-5.677c-2.323-.388-6.637-.543-8.654,1.272.226-.2.916-.109,1.195-.171a22.561,22.561,0,0,0-11.256,6.546c-1.234,1.287-5.482,5.677-5.96,8.268a5.2,5.2,0,0,0-.372,1.039,22.749,22.749,0,0,0-.849,3.211c3.571-8.066,8.84-15.837,16.725-18.133a22.855,22.855,0,0,0-10.377,7.514,28.745,28.745,0,0,0-5.644,12.651,14.493,14.493,0,0,0-4.234-5.342,11.8,11.8,0,0,0-5.88-2.414A16.624,16.624,0,0,0,390.3,747.71c-6.916,5.46-9.292,16.271-9.292,25.516a45.317,45.317,0,0,1,1.792-12.409,45.842,45.842,0,0,0-1.035,16.426,57.855,57.855,0,0,1,.77-14.456,30.574,30.574,0,0,1,1.938-5.972,31.312,31.312,0,0,0,1.858-3.257c.292.791-1.208,2.776-1.54,3.412a27.217,27.217,0,0,0-2.137,7.414c-.743,4.111-1.553,10.1-.451,14.239a27.341,27.341,0,0,1,0-5.894c-.146,4.545.226,10.113,3.73,12.983-7.115-2.2-14.959-1.551-20.853,3.986a5.358,5.358,0,0,0,.65-.838,21.344,21.344,0,0,1-2.655,2.373,13.908,13.908,0,0,0-2.8,4.84,19.092,19.092,0,0,0-1.027,6.772,18.9,18.9,0,0,0,1.412,6.676c-4.553-5.522-11.309-6.685-17.468-5.4a13.208,13.208,0,0,0-4.739,2.9,14.044,14.044,0,0,1,2.111-1.551c-5.96,3.847-8.19,19.079-8.19,19.079v525.723H1552.915Z" transform="translate(-332.371 -671.635)" fill="#5aaaff" opacity="0.03"/>
    </g>
  </g>
</svg>
