<svg xmlns="http://www.w3.org/2000/svg" xmlns:xlink="http://www.w3.org/1999/xlink" width="368" height="236" viewBox="0 0 368 236">
  <defs>
    <filter id="Rectangle_18" x="0" y="18" width="368" height="218" filterUnits="userSpaceOnUse">
      <feOffset dx="3" dy="3" input="SourceAlpha"/>
      <feGaussianBlur stdDeviation="3" result="blur"/>
      <feFlood flood-opacity="0.161"/>
      <feComposite operator="in" in2="blur"/>
      <feComposite in="SourceGraphic"/>
    </filter>
  </defs>
  <g id="Group_51" data-name="Group 51" transform="translate(-461 -403)">
    <g transform="matrix(1, 0, 0, 1, 461, 403)" filter="url(#Rectangle_18)">
      <rect id="Rectangle_18-2" data-name="Rectangle 18" width="350" height="200" rx="25" transform="translate(6 24)" fill="#ffd858"/>
    </g>
    <g id="Group_49" data-name="Group 49" transform="translate(514 403)">
      <path id="Path_357" data-name="Path 357" d="M518,224a99.619,99.619,0,0,1-9.3,41.983c-.015.03-.026.056-.042.086v0a108.683,108.683,0,0,1-16.2,25.064q-1.914,2.237-3.95,4.381c-.5.524-1,1.044-1.5,1.557q-3.891,3.951-8.187,7.572-1,.845-2.022,1.67c-.159.129-.318.255-.477.384a126,126,0,0,1-10.471,7.522q-3.664,2.371-7.521,4.5-.846.472-1.7.928-1.488.8-3,1.554-1.977.994-4,1.925c-.545.255-1.094.5-1.644.746-.8.361-1.609.709-2.424,1.05-.14.06-.28.119-.42.176-.53.225-1.068.444-1.606.663a139.238,139.238,0,0,1-21.76,6.756l-.121.027c-.488.109-.981.215-1.473.318-.367.079-.738.156-1.11.229a1.071,1.071,0,0,1-.14.03c-.761.156-1.522.3-2.291.441-.432.08-.863.159-1.3.235-.261.05-.526.093-.788.136l-.985.166c-.182.033-.364.06-.549.086-.417.066-.833.133-1.246.2-.7.106-1.416.209-2.124.3-.515.07-1.026.136-1.541.2-.606.076-1.212.146-1.822.212-.167.023-.333.04-.5.056l-.648.07c-.436.046-.871.09-1.31.129-.227.023-.451.043-.678.063q-.648.06-1.3.109c-.557.046-1.113.086-1.674.126-.682.046-1.36.089-2.045.126-.439.023-.879.046-1.322.066-1.129.053-2.257.089-3.393.116-.564.013-1.132.023-1.7.03H391.7c-.564.007-1.132.01-1.7.01a146.507,146.507,0,0,1-17.212-1.007q-6.277-.736-12.353-1.995c-.163-.033-.326-.066-.485-.1-.409-.083-.814-.172-1.219-.262-.36-.08-.716-.162-1.076-.245a138.511,138.511,0,0,1-26.736-9.01l-.129-.06c-.246-.113-.488-.222-.731-.338q-.8-.368-1.594-.749-4.516-2.172-8.8-4.646-1.1-.631-2.181-1.282c-.231-.139-.458-.278-.685-.418s-.477-.292-.712-.437q-.937-.582-1.863-1.176-3.834-2.465-7.441-5.173a119.377,119.377,0,0,1-22.4-21.82q-3.323-4.235-6.2-8.741A100.782,100.782,0,0,1,262,224c0-61.855,57.308-112,128-112S518,162.145,518,224Z" transform="translate(-262 -112)" fill="#ffefbb"/>
      <path id="Path_358" data-name="Path 358" d="M654.35,468.489c.36-.083.717-.173,1.074-.263.317-.08.63-.163.947-.247.017-.664.04-1.394.063-2.184.2-6.188.66-16.151,1.754-28.155q.09-.965.18-1.944c.39-4.068.847-8.346,1.394-12.78.017-.147.037-.29.053-.437.443-3.594.947-7.285,1.514-11.047q.6-3.946,1.287-7.979c.033-.187.067-.377.1-.563.133-.777.27-1.551.41-2.331.39-2.171.807-4.355,1.244-6.539,1.537-7.682,3.368-15.411,5.552-22.93a183.69,183.69,0,0,1,8.179-22.877,112.952,112.952,0,0,1,8.916-16.615c.05-.077.1-.15.15-.227a63.76,63.76,0,0,1,15.118-16.4l-1.187-1.62a65.478,65.478,0,0,0-15.084,16.038l-.067.1a109.183,109.183,0,0,0-8.976,16.091,175.852,175.852,0,0,0-8.562,23.13q-3.281,11.013-5.885,23.864-.915,4.526-1.747,9.276c-.093.54-.187,1.08-.28,1.624,0,.007,0,.017,0,.023-.143.834-.28,1.667-.42,2.511q-.52,3.186-.98,6.322-.71,4.831-1.284,9.5-.19,1.541-.367,3.058-.25,2.141-.474,4.225-.315,2.9-.577,5.678l-.05.51c-.027.293-.053.587-.08.877C654.907,450.771,654.483,462.564,654.35,468.489Z" transform="translate(-500.971 -247.613)" opacity="0.2"/>
      <path id="Path_359" data-name="Path 359" d="M731.01,636.453l.113-.06c.687-.357,1.367-.72,2.047-1.094.223-2.661.523-5.585.917-8.659.083-.634.167-1.277.26-1.924.047-.347.1-.7.147-1.05.393-2.708.86-5.5,1.42-8.309,2.277-11.457,6.058-23.167,12.337-30.4.337-.39.68-.764,1.037-1.127a22.561,22.561,0,0,1,2.871-2.517l-1.187-1.617a25.7,25.7,0,0,0-3.935,3.6q-.625.7-1.22,1.447c-5.778,7.272-9.386,18.039-11.633,28.7-.587,2.781-1.08,5.558-1.5,8.263q-.16,1.06-.307,2.1C731.727,628.388,731.3,632.716,731.01,636.453Z" transform="translate(-551.199 -425.154)" opacity="0.2"/>
      <circle id="Ellipse_17" data-name="Ellipse 17" cx="10.032" cy="10.032" r="10.032" transform="translate(210.536 48.314)" opacity="0.2"/>
      <circle id="Ellipse_18" data-name="Ellipse 18" cx="10.032" cy="10.032" r="10.032" transform="translate(207.305 134.087)" opacity="0.2"/>
      <path id="Path_360" data-name="Path 360" d="M685.508,297.35c2.127,12-2.569,22.871-2.569,22.871s-8.146-8.592-10.273-20.595,2.569-22.871,2.569-22.871S683.38,285.348,685.508,297.35Z" transform="translate(-515.58 -222.243)" opacity="0.2"/>
      <path id="Path_361" data-name="Path 361" d="M766.4,394.967c-11.448,4.186-22.952,1.5-22.952,1.5s7.057-9.474,18.506-13.66,22.952-1.5,22.952-1.5S777.846,390.78,766.4,394.967Z" transform="translate(-552.316 -291.546)" opacity="0.2"/>
      <path id="Path_362" data-name="Path 362" d="M785.921,632.9a31.236,31.236,0,0,1-16.1,1.02A28.466,28.466,0,0,1,798.881,623.3,31.233,31.233,0,0,1,785.921,632.9Z" transform="translate(-569.898 -453.523)" opacity="0.2"/>
      <path id="Path_363" data-name="Path 363" d="M701.96,648.27l.407.21C702.327,648.914,702.23,649.18,701.96,648.27Z" transform="translate(-535.312 -470.574)" fill="#2f2e41"/>
      <path id="Path_364" data-name="Path 364" d="M703.31,647.145c0,.047.01.1.013.143l-.143-.073c0-.043.007-.09.013-.137C703.227,646.495,703.187,645.8,703.31,647.145Z" transform="translate(-536.093 -469.307)" fill="#2f2e41"/>
      <circle id="Ellipse_19" data-name="Ellipse 19" cx="54.752" cy="54.752" r="54.752" transform="translate(62.155 52.847)" fill="#2f2e41"/>
      <circle id="Ellipse_20" data-name="Ellipse 20" cx="33.158" cy="33.158" r="33.158" transform="translate(89.753 93.62)" fill="#ffcc9f"/>
      <path id="Path_365" data-name="Path 365" d="M538.064,596.93l-.04.01-7.712,1.85-16.058,3.855-2.191.527-24.421,5.858-2.074.5-59.247,14.217a111.255,111.255,0,0,1-11.72-5.278l-.113-.06c-.217-.113-.43-.223-.644-.34q-.705-.37-1.4-.754-3.976-2.186-7.749-4.675-.97-.635-1.921-1.29c-.2-.14-.4-.28-.6-.42s-.42-.293-.627-.44q-.825-.585-1.64-1.184c5.755-10.46,19.459-17.412,33.163-21.216,10.343-2.874,12.617-12.32,12.42-20.726a49,49,0,0,0-.487-5.728,55.834,55.834,0,0,0-1.987-8.916l33.16,1.107,3.421,7.882a17.831,17.831,0,0,0-.09,2.607c.26,6.465,4.251,10.647,9.176,13.344.64.35,1.3.677,1.964.98,8.076,3.671,17.582,3.921,17.582,3.921a33.857,33.857,0,0,1,8.7.163q1.05.16,2.041.383a29.389,29.389,0,0,1,10.706,4.791,30.566,30.566,0,0,1,3.471,2.878A27.569,27.569,0,0,1,538.064,596.93Z" transform="translate(-337.791 -407.17)" fill="#ffcc9f"/>
      <path id="Path_366" data-name="Path 366" d="M770.632,685.262c-.14.13-.28.257-.42.387a112.682,112.682,0,0,1-9.219,7.569q-3.226,2.386-6.622,4.531-.745.475-1.5.934-1.31.8-2.644,1.564-1.74,1-3.524,1.937c-.48.257-.964.5-1.447.75-.707.363-1.417.714-2.134,1.057-.123.06-.247.12-.37.177L741.34,703,757.9,682.751l3.331-4.071s1.33,0,4.381,2.221a43.677,43.677,0,0,1,4.768,4.115C770.465,685.1,770.549,685.179,770.632,685.262Z" transform="translate(-556.574 -491.131)" fill="#d0cde1"/>
      <path id="Path_367" data-name="Path 367" d="M570.681,676.2a3.8,3.8,0,0,1-.187.614,112.672,112.672,0,0,1-9.219,7.569,39.314,39.314,0,0,1-8.6,2.044s.25,1.254.477,3.421q-1.31.8-2.644,1.564-1.74,1-3.524,1.937c-.48.257-.964.5-1.447.75-.707.363-1.417.714-2.134,1.057-.123.06-.247.12-.37.177-.467.227-.94.447-1.414.667a111.659,111.659,0,0,1-19.159,6.8l-.107.027c-.43.11-.864.217-1.3.32-.323.08-.65.157-.977.23a.839.839,0,0,1-.123.03c-.67.157-1.34.307-2.017.443-.38.08-.76.16-1.14.237-.23.05-.464.093-.694.137l-.867.167c-.16.033-.32.06-.484.087-.367.067-.734.133-1.1.2-.62.107-1.247.21-1.87.3-.454.07-.9.137-1.357.2-.533.077-1.067.147-1.6.213-.147.023-.294.04-.44.057l-.57.07c-.383.047-.767.09-1.154.13-.2.023-.4.043-.6.063q-.57.06-1.14.11c-.49.047-.98.087-1.474.127-.6.047-1.2.09-1.8.127-.387.023-.774.047-1.164.067-.994.053-1.987.09-2.987.117-.5.013-1,.023-1.5.03h-.01c-.5.007-1,.01-1.5.01a113.089,113.089,0,0,1-15.154-1.014q-5.527-.74-10.877-2.007c-.143-.033-.287-.067-.427-.1-.36-.083-.717-.173-1.074-.263-.317-.08-.63-.163-.947-.247a111.812,111.812,0,0,1-23.54-9.066l-.113-.06c-.217-.114-.43-.224-.643-.34,18.3-4.265,47.224-10.99,72.321-16.752q1.055-.24,2.1-.48c9.269-2.127,17.952-4.108,25.3-5.765l2.234-.5c7.892-1.774,14.021-3.121,17.345-3.794a27.171,27.171,0,0,1,2.714-.477l6.939,10.753Z" transform="translate(-362.782 -482.299)" fill="#2f2e41"/>
      <circle id="Ellipse_21" data-name="Ellipse 21" cx="16.309" cy="16.309" r="16.309" transform="translate(43.479 51.948)" fill="#2f2e41"/>
      <circle id="Ellipse_22" data-name="Ellipse 22" cx="16.309" cy="16.309" r="16.309" transform="translate(159.567 47.322)" fill="#2f2e41"/>
      <path id="Path_368" data-name="Path 368" d="M664.472,250.309a16.308,16.308,0,0,1,14.56-16.213,16.309,16.309,0,1,0,0,32.425A16.309,16.309,0,0,1,664.472,250.309Z" transform="translate(-508.294 -193.616)" fill="#2f2e41"/>
      <path id="Path_369" data-name="Path 369" d="M354.455,313.892a16.309,16.309,0,0,1-.945-21.772A16.309,16.309,0,1,0,376.2,315.281,16.309,16.309,0,0,1,354.455,313.892Z" transform="translate(-318.846 -232.491)" fill="#2f2e41"/>
      <path id="Path_370" data-name="Path 370" d="M503.817,359.777c-19.3,0-34.948,9.127-34.948,20.387,0,5.038,3.145,9.642,8.337,13.2l6.728-4.875-1.83,7.637c.759.352,1.534.692,2.343,1.007L494.5,385.406v14.405a58.668,58.668,0,0,0,9.32.739c19.3,0,34.948-9.127,34.948-20.387S523.119,359.777,503.817,359.777Z" transform="translate(-386.319 -277.787)" fill="#2f2e41"/>
      <path id="Path_371" data-name="Path 371" d="M674.705,303.876s-2.533,11.65,13.3,16.309Z" transform="translate(-517.138 -240.327)" fill="#2f2e41"/>
      <path id="Path_372" data-name="Path 372" d="M445.58,310.235s5.825,13.024-11.649,18.849Z" transform="translate(-368.361 -244.585)" fill="#2f2e41"/>
      <ellipse id="Ellipse_23" data-name="Ellipse 23" cx="2.763" cy="6.632" rx="2.763" ry="6.632" transform="translate(81.466 127.757) rotate(-15.639)" fill="#d0cde1"/>
      <ellipse id="Ellipse_24" data-name="Ellipse 24" cx="6.632" cy="2.763" rx="6.632" ry="2.763" transform="translate(158.389 134.357) rotate(-86.476)" fill="#d0cde1"/>
    </g>
  </g>
</svg>
